<?xml version="1.0" standalone="no"?>
<!DOCTYPE svg PUBLIC "-//W3C//DTD SVG 20010904//EN"
 "http://www.w3.org/TR/2001/REC-SVG-20010904/DTD/svg10.dtd">
<svg version="1.0" xmlns="http://www.w3.org/2000/svg"
 width="700.000000pt" height="700.000000pt" viewBox="0 0 700.000000 700.000000"
 preserveAspectRatio="xMidYMid meet">
<metadata>
Created by potrace 1.14, written by Peter Selinger 2001-2017
</metadata>
<g transform="translate(0.000000,700.000000) scale(0.100000,-0.100000)"
fill="#000000" stroke="none">
<path d="M3278 6996 c-1 -2 -42 -6 -89 -10 -47 -4 -95 -8 -106 -10 -11 -3 -44
-7 -74 -11 -325 -41 -711 -159 -1039 -318 -165 -80 -436 -243 -540 -324 -8 -6
-51 -40 -95 -74 -379 -295 -715 -701 -942 -1140 -213 -412 -335 -833 -380
-1314 -15 -160 -9 -551 12 -709 2 -17 6 -56 10 -86 17 -146 84 -429 147 -615
78 -232 205 -507 321 -692 29 -46 57 -91 62 -101 23 -41 128 -185 202 -278
409 -513 983 -916 1603 -1126 100 -34 334 -99 402 -112 135 -25 199 -36 233
-41 22 -2 56 -7 75 -10 192 -27 676 -27 842 0 13 2 46 7 73 10 74 11 87 13
120 19 17 4 46 9 65 12 131 21 503 130 625 184 299 130 461 218 680 368 437
299 811 710 1075 1181 54 98 152 301 165 342 4 13 11 29 15 34 29 37 159 462
186 605 2 14 7 36 10 50 3 14 8 39 10 55 2 17 6 39 8 50 2 11 7 45 11 75 4 30
9 66 11 80 19 112 26 547 11 715 -8 90 -24 212 -33 257 -2 13 -7 39 -10 58 -7
49 -53 259 -64 295 -138 453 -281 760 -507 1083 -261 375 -639 738 -999 959
-155 96 -348 199 -464 248 -36 15 -83 35 -105 45 -169 73 -529 173 -745 206
-25 3 -54 8 -65 10 -10 2 -49 6 -85 10 -36 3 -76 8 -90 11 -27 5 -536 13 -542
9z"/>
</g>
</svg>
