<?xml version="1.0" standalone="no"?>
<!DOCTYPE svg PUBLIC "-//W3C//DTD SVG 20010904//EN"
 "http://www.w3.org/TR/2001/REC-SVG-20010904/DTD/svg10.dtd">
<svg version="1.0" xmlns="http://www.w3.org/2000/svg"
 width="958.000000pt" height="958.000000pt" viewBox="0 0 958.000000 958.000000"
 preserveAspectRatio="xMidYMid meet">
<metadata>
Created by potrace 1.14, written by Peter Selinger 2001-2017
</metadata>
<g transform="translate(0.000000,958.000000) scale(0.100000,-0.100000)"
fill="#000000" stroke="none">
<path d="M6950 8740 c-36 -5 -213 -44 -395 -88 -555 -135 -1642 -398 -2180
-527 -3314 -800 -3273 -790 -3409 -847 -127 -54 -306 -184 -541 -393 -295
-263 -347 -315 -378 -379 -54 -110 -58 -199 -15 -361 12 -44 157 -413 323
-820 415 -1015 1158 -2835 1479 -3619 248 -606 269 -654 323 -724 96 -125 176
-160 341 -147 88 6 260 39 291 54 9 4 223 61 476 126 l460 118 2772 1108
c1524 610 2798 1121 2830 1138 125 63 210 169 238 297 34 150 16 205 -237 744
-239 506 -1660 3537 -1805 3850 -114 243 -168 334 -237 398 -71 66 -190 91
-336 72z m-107 -629 c49 -28 84 -97 151 -299 36 -107 64 -197 63 -199 -2 -1
-25 52 -52 120 -62 159 -103 232 -161 289 -84 84 -164 87 -443 18 -271 -67
-206 -41 144 58 154 43 239 47 298 13z m-348 -440 c53 -25 85 -61 133 -151 22
-41 200 -419 395 -840 673 -1452 800 -1726 933 -2012 73 -158 141 -313 150
-344 20 -70 14 -141 -17 -190 -52 -85 -75 -95 -922 -403 -435 -159 -1257 -458
-1826 -666 -569 -207 -1062 -383 -1095 -392 -78 -20 -188 -13 -243 16 -60 30
-137 121 -182 214 -35 72 -196 439 -851 1932 -87 198 -233 531 -325 740 -369
841 -355 805 -355 877 0 79 36 130 120 167 35 15 3669 1002 3890 1056 78 19
148 18 195 -4z m-5240 -405 c-249 -121 -316 -302 -230 -625 29 -111 186 -488
1039 -2503 564 -1331 1045 -2454 1096 -2556 153 -310 239 -373 508 -376 112
-1 113 -1 70 -15 -27 -9 -94 -14 -178 -15 l-135 -1 -73 39 c-160 85 -225 199
-548 956 -1196 2796 -1801 4220 -1830 4306 -64 193 -87 312 -82 437 3 90 8
120 25 153 43 81 135 145 297 206 134 50 152 47 41 -6z m-475 -210 c0 -2 -108
-123 -241 -268 -270 -295 -325 -362 -346 -425 -20 -59 -14 -136 30 -363 20
-102 39 -201 42 -220 10 -58 -104 227 -137 345 -22 79 -31 131 -31 185 0 106
23 151 125 242 44 40 187 171 317 290 238 218 241 221 241 214z m8263 -2641
c36 -8 111 -37 169 -63 109 -51 165 -100 229 -201 82 -128 71 -343 -24 -484
-42 -62 -107 -106 -242 -164 -106 -45 -114 -47 -205 -47 -77 0 -105 5 -145 23
-89 39 -159 92 -210 157 -118 150 -145 350 -74 540 27 72 122 174 194 209 90
44 201 55 308 30z m-618 -1191 c-57 -26 -3921 -1590 -3923 -1589 -8 6 54 138
68 145 8 4 692 262 1520 573 828 311 1690 636 1915 721 226 85 415 155 420
155 7 -1 7 -2 0 -5z m-4630 -773 c101 -24 254 -95 322 -151 219 -179 226 -543
14 -728 -61 -54 -279 -144 -364 -150 -201 -15 -401 113 -490 313 -73 166 -55
408 39 536 69 95 140 144 249 173 113 30 130 30 230 7z"/>
</g>
</svg>
