<?xml version="1.0" standalone="no"?>
<!DOCTYPE svg PUBLIC "-//W3C//DTD SVG 20010904//EN"
 "http://www.w3.org/TR/2001/REC-SVG-20010904/DTD/svg10.dtd">
<svg version="1.0" xmlns="http://www.w3.org/2000/svg"
 width="576.000000pt" height="576.000000pt" viewBox="0 0 576.000000 576.000000"
 preserveAspectRatio="xMidYMid meet">
<metadata>
Created by potrace 1.14, written by Peter Selinger 2001-2017
</metadata>
<g transform="translate(0.000000,576.000000) scale(0.100000,-0.100000)"
fill="#000000" stroke="none">
<path d="M656 5738 c-14 -19 -16 -72 -16 -375 l0 -352 251 -3 251 -3 24 -28
c23 -27 24 -35 24 -162 0 -129 -1 -134 -26 -164 l-26 -31 -412 0 c-227 0 -416
-3 -419 -6 -11 -11 12 -43 43 -59 21 -11 63 -15 160 -15 l130 0 0 -370 0 -370
249 0 249 0 27 -32 c26 -31 26 -32 23 -169 -3 -129 -5 -140 -26 -161 l-23 -23
-419 -3 c-463 -3 -452 -1 -391 -63 l29 -29 141 0 141 0 0 -370 0 -370 244 0
c244 0 245 0 273 -24 l28 -24 0 -147 0 -147 -28 -24 -28 -24 -415 0 -415 0 12
-23 c23 -43 38 -46 187 -47 l142 0 0 -370 0 -370 229 0 c141 0 240 -4 260 -11
50 -18 61 -51 61 -189 0 -144 -11 -174 -68 -189 -23 -7 -188 -11 -429 -11
-419 0 -412 1 -378 -47 23 -32 75 -43 208 -43 l117 0 0 -359 c0 -314 2 -362
16 -375 14 -14 241 -16 2354 -16 2113 0 2340 2 2354 16 14 14 16 275 15 2727
0 1492 -4 2745 -8 2785 -4 47 -12 77 -21 82 -9 6 -944 10 -2347 10 l-2332 0
-15 -22z m2549 -1426 c411 -142 533 -636 231 -938 -81 -81 -197 -144 -304
-165 -88 -17 -251 -7 -329 21 -170 60 -313 206 -366 375 -31 99 -30 233 2 333
69 212 259 371 486 406 69 10 200 -5 280 -32z m130 -1427 c205 -33 391 -123
547 -264 127 -115 239 -300 294 -486 26 -85 27 -105 32 -337 l4 -248 -1206 0
-1206 0 0 143 c0 283 27 440 104 603 59 125 115 204 210 299 137 136 300 228
486 273 114 28 119 29 400 30 174 1 271 -2 335 -13z"/>
</g>
</svg>
