<?xml version="1.0" standalone="no"?>
<!DOCTYPE svg PUBLIC "-//W3C//DTD SVG 20010904//EN"
 "http://www.w3.org/TR/2001/REC-SVG-20010904/DTD/svg10.dtd">
<svg version="1.0" xmlns="http://www.w3.org/2000/svg"
 width="640.000000pt" height="640.000000pt" viewBox="0 0 640.000000 640.000000"
 preserveAspectRatio="xMidYMid meet">
<metadata>
Created by potrace 1.14, written by Peter Selinger 2001-2017
</metadata>
<g transform="translate(0.000000,640.000000) scale(0.100000,-0.100000)"
fill="#000000" stroke="none">
<path d="M0 3200 l0 -3200 3200 0 3200 0 0 3200 0 3200 -3200 0 -3200 0 0
-3200z m2148 3102 c24 -49 31 -227 32 -782 1 -594 13 -1034 30 -1092 23 -80
49 -82 945 -82 931 0 940 1 960 102 12 58 21 509 23 1082 1 289 5 570 8 625 8
114 28 175 59 175 32 0 51 -61 59 -180 3 -58 7 -364 8 -680 4 -902 12 -1066
56 -1089 54 -28 183 -33 1022 -41 581 -5 875 -12 895 -19 17 -6 38 -14 48 -17
27 -10 21 -47 -11 -62 -49 -24 -220 -31 -812 -32 -643 -1 -1055 -12 -1112 -30
-48 -14 -64 -44 -72 -135 -11 -129 -16 -1126 -7 -1407 8 -245 11 -282 28 -310
33 -56 58 -58 893 -64 1006 -7 1110 -14 1110 -69 0 -55 -103 -62 -1105 -69
-407 -3 -758 -8 -780 -12 -73 -12 -109 -28 -123 -56 -21 -44 -31 -387 -32
-1063 -2 -809 -9 -915 -65 -915 -27 0 -46 45 -57 134 -8 70 -9 83 -6 129 0 12
0 306 -1 652 -2 683 -13 1020 -33 1063 -9 17 -28 32 -53 41 -113 38 -1660 40
-1787 1 -26 -7 -43 -21 -53 -41 -24 -45 -34 -357 -35 -1049 -1 -812 -10 -930
-65 -930 -56 0 -64 98 -65 839 0 799 -9 1092 -35 1142 -10 18 -28 32 -53 39
-57 17 -466 29 -1087 30 -708 1 -815 10 -815 65 0 56 95 63 1035 69 881 5 903
7 925 83 6 21 14 121 17 222 5 146 3 185 -7 191 -11 7 -11 12 1 26 12 14 14
98 13 523 0 574 -7 775 -28 825 -11 27 -23 37 -53 46 -58 17 -487 29 -1098 30
-698 1 -805 10 -805 65 0 23 33 41 104 54 26 5 282 9 569 10 906 2 1201 12
1259 42 10 5 23 28 29 52 15 55 25 446 28 1102 2 684 11 795 66 795 12 0 25
-11 33 -28z m-1128 -642 c6 -10 19 -65 31 -121 25 -127 45 -179 69 -179 11 0
76 60 151 140 115 121 138 140 164 140 35 0 55 -15 55 -41 0 -19 -84 -127
-232 -299 -54 -62 -98 -121 -98 -132 0 -52 60 -133 107 -145 43 -10 102 15
149 65 33 34 47 43 55 35 9 -9 1 -24 -30 -59 -44 -50 -50 -64 -26 -64 32 0 13
-28 -37 -56 -96 -52 -197 -34 -277 50 -53 55 -68 50 -181 -60 -93 -90 -100
-95 -137 -92 -31 2 -39 7 -41 26 -4 26 27 69 158 222 l82 95 -8 55 c-4 30 -8
80 -8 110 -1 51 1 55 21 53 30 -3 36 23 24 94 -6 32 -12 74 -13 93 -3 30 -7
35 -28 35 -17 0 -29 -8 -38 -28 -17 -34 -10 -57 18 -57 27 0 26 -29 -1 -83
-37 -71 -215 -267 -243 -267 -20 0 -21 14 -1 30 19 16 19 40 1 40 -30 0 -23
19 45 121 39 57 88 134 110 171 58 98 86 128 120 128 18 0 32 -7 39 -20z
m2536 -21 c59 -30 87 -75 86 -134 -1 -67 -38 -121 -126 -182 -24 -17 -30 -29
-32 -63 -5 -92 -104 -235 -211 -303 -199 -126 -432 -65 -462 123 -36 226 174
486 464 572 88 26 216 20 281 -13z m2098 1 c84 -40 108 -118 65 -207 -19 -38
-46 -64 -138 -130 -3 -2 -4 -21 -3 -41 4 -57 -57 -170 -126 -238 -142 -139
-336 -174 -460 -84 -104 75 -118 238 -34 394 15 28 65 89 112 136 92 92 180
145 301 181 89 26 216 21 283 -11z m-4212 -2062 c91 -27 140 -106 118 -189
-11 -40 -78 -118 -129 -150 -18 -12 -25 -26 -28 -58 -9 -119 -119 -259 -257
-327 -245 -121 -460 13 -415 259 18 102 64 181 159 278 73 73 101 94 180 132
148 72 260 88 372 55z m2658 -1993 c0 -8 -7 -15 -15 -15 -8 0 -15 7 -15 15 0
8 7 15 15 15 8 0 15 -7 15 -15z m-3080 -105 c6 -10 19 -63 30 -117 26 -130 47
-183 70 -183 10 0 75 60 150 140 116 123 137 140 164 140 35 0 56 -15 56 -41
0 -20 -89 -134 -232 -298 -107 -122 -112 -135 -78 -200 54 -107 156 -107 247
-3 25 30 34 35 44 24 11 -10 5 -20 -29 -55 -44 -44 -53 -67 -27 -67 31 0 13
-28 -36 -54 -37 -21 -65 -28 -107 -29 -67 -1 -100 14 -172 78 -28 25 -56 45
-62 45 -6 0 -57 -45 -113 -101 -98 -96 -104 -100 -141 -97 -32 2 -40 7 -42 26
-4 27 13 50 145 203 103 121 104 124 78 233 -16 69 -7 111 24 101 25 -7 33 26
21 80 -5 22 -10 58 -10 81 0 69 -41 87 -66 29 -16 -40 -12 -55 16 -55 55 0 10
-90 -119 -234 -87 -98 -123 -127 -138 -112 -4 3 1 14 10 24 21 23 22 42 3 42
-30 0 -24 18 31 101 31 46 83 127 116 179 32 52 68 105 80 118 26 28 72 29 87
2z m4180 0 c6 -10 19 -65 31 -121 25 -125 45 -179 68 -179 16 0 117 97 236
228 39 42 54 52 80 52 39 0 59 -21 52 -52 -4 -13 -52 -77 -109 -143 -247 -290
-236 -270 -199 -343 53 -104 141 -114 227 -25 27 27 51 43 61 41 15 -3 9 -13
-29 -54 -52 -55 -60 -75 -28 -67 42 11 19 -26 -32 -51 -75 -38 -158 -36 -219
3 -24 15 -57 42 -73 60 -17 17 -36 31 -44 31 -8 0 -61 -45 -117 -101 -98 -96
-104 -100 -141 -97 -32 2 -40 7 -42 26 -4 26 7 43 142 200 106 126 106 126 81
237 -16 69 -8 112 20 101 27 -10 38 20 26 74 -6 28 -11 66 -11 85 0 46 -9 65
-31 65 -21 0 -53 -54 -45 -76 3 -8 14 -14 25 -14 28 0 31 -22 10 -70 -31 -70
-221 -280 -252 -280 -21 0 -22 14 -2 30 21 18 19 37 -7 43 -21 6 -21 6 -2 34
10 15 63 98 117 183 55 85 109 165 120 178 26 28 72 29 87 2z"/>
<path d="M2520 4200 c-113 -3 -224 -12 -248 -19 -79 -22 -79 -23 -88 -696 -6
-509 6 -1071 26 -1137 23 -80 48 -82 950 -82 912 0 927 1 951 87 18 63 26 445
23 1052 -4 727 -6 753 -81 775 -85 25 -993 37 -1533 20z m584 -622 c8 -13 23
-66 34 -118 27 -123 45 -174 65 -178 14 -3 60 41 239 230 42 45 50 49 85 46
34 -3 38 -6 41 -34 3 -27 -11 -48 -90 -144 -51 -61 -125 -151 -165 -200 l-72
-87 12 -39 c17 -56 76 -114 116 -114 42 0 98 29 140 74 32 32 51 38 51 15 0
-5 -16 -26 -35 -48 -40 -44 -41 -49 -18 -66 15 -11 12 -15 -23 -38 -98 -64
-197 -55 -291 28 -28 25 -59 45 -68 45 -9 0 -61 -43 -115 -95 -86 -83 -102
-95 -133 -95 -44 0 -64 22 -50 53 6 13 57 78 114 146 57 67 109 132 116 144 9
17 8 39 -4 99 -18 89 -13 125 20 130 24 3 25 14 13 118 -11 85 -15 100 -30
100 -18 0 -33 -19 -41 -51 -6 -23 -2 -28 24 -37 34 -12 34 -18 -8 -99 -27 -53
-218 -253 -242 -253 -23 0 -25 13 -4 30 8 7 15 19 15 26 0 8 -7 14 -15 14 -8
0 -15 4 -15 10 0 13 213 347 244 383 30 34 70 36 90 5z"/>
<path d="M3301 5551 c-29 -10 -65 -28 -80 -40 -14 -12 -54 -39 -87 -61 -149
-97 -233 -258 -195 -372 20 -59 54 -83 119 -83 94 0 183 59 254 169 56 86 51
104 -36 136 -107 39 -154 101 -110 144 23 23 53 20 96 -11 54 -37 130 -43 187
-14 46 24 81 72 74 101 -12 44 -136 62 -222 31z"/>
<path d="M5400 5553 c-47 -17 -88 -42 -130 -80 -14 -13 -30 -23 -37 -23 -26 0
-139 -119 -168 -176 -56 -110 -44 -220 28 -264 86 -53 225 14 317 152 57 86
53 106 -28 134 -110 40 -149 84 -123 140 15 33 49 31 108 -6 75 -48 176 -38
229 21 43 48 36 87 -20 109 -39 14 -123 11 -176 -7z"/>
<path d="M1240 3476 c-51 -14 -130 -61 -130 -76 0 -6 4 -10 8 -10 5 0 29 -13
54 -30 60 -40 119 -47 183 -23 80 30 109 104 50 131 -40 18 -117 22 -165 8z"/>
<path d="M1014 3342 c-52 -38 -108 -102 -136 -154 -18 -34 -23 -59 -23 -125 0
-79 1 -84 31 -114 59 -59 145 -49 251 29 76 57 159 203 122 217 -152 53 -189
80 -189 139 0 20 -4 36 -8 36 -5 0 -27 -13 -48 -28z"/>
<path d="M5577 1383 c-4 -3 -7 -11 -7 -17 0 -6 5 -5 12 2 6 6 9 14 7 17 -3 3
-9 2 -12 -2z"/>
</g>
</svg>
