<?xml version="1.0" standalone="no"?>
<!DOCTYPE svg PUBLIC "-//W3C//DTD SVG 20010904//EN"
 "http://www.w3.org/TR/2001/REC-SVG-20010904/DTD/svg10.dtd">
<svg version="1.0" xmlns="http://www.w3.org/2000/svg"
 width="700.000000pt" height="700.000000pt" viewBox="0 0 700.000000 700.000000"
 preserveAspectRatio="xMidYMid meet">
<metadata>
Created by potrace 1.14, written by Peter Selinger 2001-2017
</metadata>
<g transform="translate(0.000000,700.000000) scale(0.100000,-0.100000)"
fill="#000000" stroke="none">
<path d="M643 4608 l-350 -350 669 -669 c368 -368 668 -669 666 -670 -2 0
-302 -2 -668 -2 l-665 -2 -3 -522 c-1 -288 1 -523 5 -524 23 -3 3070 -5 3078
-2 7 2 10 502 9 1546 l-1 1542 -524 0 -524 0 -2 -640 c-1 -352 -2 -652 -2
-667 -1 -23 -94 66 -669 642 l-669 668 -350 -350z"/>
<path d="M3623 4947 c-4 -7 -7 -241 -7 -522 l-1 -510 669 -5 670 -5 -668 -668
c-423 -423 -664 -671 -660 -679 6 -10 436 -528 545 -657 l29 -35 47 45 c25 24
65 62 88 84 23 22 120 115 216 206 96 92 199 190 229 219 46 43 247 235 425
405 23 22 113 108 200 190 87 83 172 164 189 180 71 70 65 133 65 -629 -1
-377 2 -689 4 -693 4 -6 933 -10 1030 -4 16 1 17 82 17 1546 l0 1545 -1540 -1
c-1104 -1 -1542 -5 -1547 -12z"/>
</g>
</svg>
