<?xml version="1.0" standalone="no"?>
<!DOCTYPE svg PUBLIC "-//W3C//DTD SVG 20010904//EN"
 "http://www.w3.org/TR/2001/REC-SVG-20010904/DTD/svg10.dtd">
<svg version="1.0" xmlns="http://www.w3.org/2000/svg"
 width="700.000000pt" height="700.000000pt" viewBox="0 0 700.000000 700.000000"
 preserveAspectRatio="xMidYMid meet">
<metadata>
Created by potrace 1.14, written by Peter Selinger 2001-2017
</metadata>
<g transform="translate(0.000000,700.000000) scale(0.100000,-0.100000)"
fill="#000000" stroke="none">
<path d="M3250 6689 c-135 -26 -744 -145 -1355 -264 -610 -118 -1120 -218
-1133 -220 -50 -12 -159 -205 -188 -332 -29 -131 3 -388 57 -457 12 -15 61
-54 110 -87 49 -33 89 -64 89 -69 0 -5 -11 -21 -24 -36 -22 -27 -25 -27 -64
-16 -37 11 -46 10 -79 -7 -78 -40 -121 -118 -130 -236 l-6 -73 -49 -4 c-27 -3
-62 -14 -76 -25 -72 -52 -131 -194 -151 -358 -15 -127 0 -222 61 -377 l30 -77
-21 -105 c-23 -115 -26 -194 -11 -301 20 -140 32 -165 143 -296 136 -161 144
-172 129 -177 -6 -2 -22 -21 -34 -43 -27 -49 -52 -56 -135 -39 -72 14 -77 12
-123 -54 -68 -100 -107 -281 -97 -450 7 -106 16 -151 49 -228 19 -45 41 -61
701 -521 375 -261 849 -591 1052 -732 1338 -932 1210 -845 1245 -845 11 0 343
133 738 296 394 163 897 371 1117 462 220 90 517 213 659 272 300 123 310 130
282 202 -9 24 -27 50 -39 59 -12 8 -73 51 -136 94 l-114 78 8 -39 c16 -83 23
-167 16 -186 -5 -15 -92 -54 -337 -153 -399 -160 -1359 -554 -1804 -739 l-325
-135 -18 52 c-67 193 -80 424 -31 547 21 52 42 64 94 50 47 -13 77 0 124 49
17 17 33 31 38 31 30 0 728 264 1583 600 825 323 887 348 907 367 23 20 23 61
0 89 -9 12 -133 78 -275 147 l-257 126 -27 -52 c-36 -72 -51 -172 -40 -261 5
-39 10 -80 11 -91 1 -17 -39 -28 -429 -117 -1103 -251 -2590 -578 -2605 -573
-31 10 -110 104 -138 163 -25 52 -27 67 -27 182 0 142 13 180 87 265 l40 45
66 -6 c65 -6 69 -5 113 28 37 28 60 37 123 47 42 6 87 11 100 11 13 0 79 -43
161 -105 76 -58 143 -105 148 -105 12 0 173 46 717 205 195 57 490 142 655
190 165 47 368 106 450 130 89 26 218 55 315 70 300 46 415 67 428 77 6 6 12
25 12 43 l0 32 243 70 c224 64 243 71 255 97 25 50 5 73 -154 168 l-144 87 0
-104 c0 -58 -2 -105 -5 -105 -5 0 -783 -208 -1230 -330 -165 -45 -567 -156
-894 -246 -327 -91 -602 -163 -610 -162 -21 4 -66 87 -91 168 -74 232 -17 522
107 545 21 3 166 35 321 71 156 35 295 64 308 64 13 0 91 -33 172 -74 193 -97
239 -102 302 -34 38 42 39 42 75 30 39 -15 -3 -29 1145 411 260 100 349 129
510 167 195 47 195 47 204 78 6 17 17 34 25 38 9 3 120 46 246 94 333 127 315
119 315 144 0 13 -10 31 -22 42 -28 25 -105 74 -115 74 -4 0 -28 -20 -53 -44
-44 -43 -58 -49 -1170 -447 -619 -221 -1130 -404 -1136 -406 -20 -7 -81 55
-108 109 -17 33 -26 69 -26 98 0 55 24 132 48 153 24 20 1610 590 2272 815
346 118 377 130 384 148 7 18 -17 69 -36 77 -7 3 -100 42 -207 86 -107 45
-195 80 -196 79 -4 -6 14 -179 20 -188 3 -6 4 -10 0 -10 -3 0 -123 -31 -268
-69 -1251 -331 -2602 -675 -2622 -667 -20 7 -65 214 -65 297 0 83 17 144 70
249 66 131 69 134 151 152 88 20 2790 661 2883 684 54 13 66 21 76 44 13 31 0
90 -23 107 -26 20 -3065 1473 -3078 1472 -8 -1 -124 -23 -259 -50z m-2098
-1640 c106 -72 197 -135 203 -140 5 -5 -67 25 -160 67 -172 78 -275 118 -283
110 -8 -9 162 -101 493 -268 336 -169 344 -174 710 -421 1307 -885 1269 -859
1276 -870 4 -5 108 18 241 52 230 61 235 61 274 46 l39 -16 -24 19 c-23 18
-23 20 -5 25 65 20 1507 397 1509 395 2 -2 -292 -104 -653 -228 -640 -219
-658 -226 -704 -269 -26 -24 -60 -69 -75 -100 -26 -52 -28 -65 -28 -182 0 -90
4 -130 13 -142 8 -9 10 -22 6 -28 -4 -7 -3 -9 3 -6 6 4 13 0 17 -8 3 -8 2 -16
-2 -19 -11 -7 -312 143 -312 155 0 6 -4 8 -9 5 -12 -8 -211 92 -211 105 0 6
-4 8 -9 4 -14 -8 -221 97 -214 109 3 5 1 6 -5 3 -11 -7 -214 90 -220 105 -2 4
-10 8 -18 8 -23 0 -84 36 -76 45 4 5 -1 5 -11 2 -17 -7 -98 29 -105 46 -2 4
-9 7 -16 7 -18 0 -180 80 -184 91 -2 5 -10 9 -17 9 -18 0 -379 181 -383 192
-2 4 -9 8 -17 8 -7 0 -102 44 -211 99 -110 54 -209 102 -221 105 -13 4 -23 12
-23 17 0 5 -9 9 -21 9 -13 0 -18 4 -13 12 5 7 2 9 -7 6 -18 -7 -141 56 -131
67 4 5 2 5 -5 2 -15 -9 -44 3 -37 15 3 5 0 9 -7 7 -28 -3 -40 1 -33 13 5 7 3
8 -5 4 -7 -5 -21 0 -32 10 -10 9 -19 14 -19 10 0 -3 -18 3 -40 14 -22 11 -40
25 -40 31 0 6 -4 8 -8 5 -5 -3 -53 17 -107 43 -62 30 -93 50 -84 54 8 4 4 4
-7 2 -13 -3 -29 1 -38 10 -9 9 -16 14 -16 11 0 -7 -283 133 -290 144 -3 4 -18
10 -33 14 -17 4 -25 11 -21 18 4 6 3 8 -4 5 -14 -9 -43 3 -36 14 3 5 -2 6 -10
3 -14 -6 -21 5 -17 29 0 4 -3 7 -8 7 -16 0 -30 92 -25 160 3 37 15 87 29 118
30 64 59 80 124 63 53 -14 78 -1 116 59 14 22 29 40 34 40 5 0 96 -59 203
-131z"/>
</g>
</svg>
