<?xml version="1.0" encoding="UTF-8" standalone="no"?>
<!-- Created with Inkscape (http://www.inkscape.org/) -->

<svg
   xmlns:dc="http://purl.org/dc/elements/1.1/"
   xmlns:cc="http://creativecommons.org/ns#"
   xmlns:rdf="http://www.w3.org/1999/02/22-rdf-syntax-ns#"
   xmlns:svg="http://www.w3.org/2000/svg"
   xmlns="http://www.w3.org/2000/svg"
   xmlns:sodipodi="http://sodipodi.sourceforge.net/DTD/sodipodi-0.dtd"
   xmlns:inkscape="http://www.inkscape.org/namespaces/inkscape"
   width="307.06372mm"
   height="190.80804mm"
   viewBox="0 0 1088.0211 676.09149"
   id="svg2"
   version="1.1"
   inkscape:version="0.91 r13725"
   sodipodi:docname="fadedorangebackground.svg">
  <defs
     id="defs4" />
  <sodipodi:namedview
     id="base"
     pagecolor="#ffffff"
     bordercolor="#666666"
     borderopacity="1.0"
     inkscape:pageopacity="0.0"
     inkscape:pageshadow="2"
     inkscape:zoom="0.35"
     inkscape:cx="799.92858"
     inkscape:cy="-262.44875"
     inkscape:document-units="px"
     inkscape:current-layer="layer1"
     showgrid="false"
     fit-margin-top="0"
     fit-margin-left="0"
     fit-margin-right="0"
     fit-margin-bottom="0"
     inkscape:window-width="1916"
     inkscape:window-height="1035"
     inkscape:window-x="4"
     inkscape:window-y="1"
     inkscape:window-maximized="1" />
  <metadata
     id="metadata7">
    <rdf:RDF>
      <cc:Work
         rdf:about="">
        <dc:format>image/svg+xml</dc:format>
        <dc:type
           rdf:resource="http://purl.org/dc/dcmitype/StillImage" />
        <dc:title></dc:title>
        <dc:creator>
          <cc:Agent>
            <dc:title>j4p4n</dc:title>
          </cc:Agent>
        </dc:creator>
        <cc:license
           rdf:resource="http://creativecommons.org/publicdomain/zero/1.0/" />
      </cc:Work>
      <cc:License
         rdf:about="http://creativecommons.org/publicdomain/zero/1.0/">
        <cc:permits
           rdf:resource="http://creativecommons.org/ns#Reproduction" />
        <cc:permits
           rdf:resource="http://creativecommons.org/ns#Distribution" />
        <cc:permits
           rdf:resource="http://creativecommons.org/ns#DerivativeWorks" />
      </cc:License>
    </rdf:RDF>
  </metadata>
  <g
     inkscape:label="Layer 1"
     inkscape:groupmode="layer"
     id="layer1"
     transform="translate(919.21429,406.17806)">
    <g
       id="g4305"
       transform="translate(214.28571,-862.85714)">
      <path
         style="fill:#fefbc5"
         d="m -1133.5,794.71936 0,-338 544,0 544,0 0,338 0,338.00004 -544,0 -544,0 0,-338.00004 z"
         id="path4345"
         inkscape:connector-curvature="0" />
      <path
         style="fill:#fdf0ac"
         d="m -1133.5,833.3418 c 0,-238.2973 0.255,-299.58339 1.25,-300.38644 2.9106,-2.3492 77.2097,-32.17628 78.0522,-31.33376 0.5374,0.53733 -2.9863,17.64637 -8.7015,42.25038 -5.2825,22.74106 -9.6037,41.94738 -9.6026,42.68071 0,0.73334 0.4211,1.18334 0.9334,1 0.5123,-0.18333 16.4899,-17.11322 35.5057,-37.62198 l 34.5742,-37.28866 -1.4494,-2.80288 c -0.7972,-1.54159 -7.8873,-13.59021 -15.7557,-26.77473 -7.8685,-13.18451 -14.4188,-24.50582 -14.5563,-25.15846 -0.1926,-0.91423 113.14827,-1.18662 493.75,-1.18662 l 494,0 0,338 0,338.00004 -544,0 -544,0 0,-299.3776 z m 121.3924,-179.62244 c 12.41375,-16.225 22.57818,-29.725 22.58759,-30 0.009,-0.275 -4.81974,-2.14486 -10.73139,-4.15525 -5.9117,-2.01039 -24.1618,-8.24718 -40.5557,-13.85953 -16.394,-5.61236 -29.9696,-10.04189 -30.168,-9.84341 -0.1985,0.19849 0.2282,2.61028 0.9482,5.35954 1.0716,4.09177 14.2549,53.79467 22.66,85.43132 1.0861,4.08796 2.2105,7.81431 2.4988,8.28076 0.2883,0.46646 2.699,-1.97824 5.3571,-5.43266 2.6581,-3.45443 14.9896,-19.55577 27.4034,-35.78077 z m 92.44093,-124.86382 c -0.85762,-2.22248 -57.41734,-64.92522 -58.02092,-64.32263 -1.65041,1.64769 -19.80212,45.58934 -19.09625,46.22822 0.43111,0.3902 9.78384,2.85365 20.78384,5.47434 11,2.6207 27.65,6.68178 37,9.02465 18.49919,4.6354 19.83016,4.88292 19.33333,3.59542 z"
         id="path4343"
         inkscape:connector-curvature="0" />
      <path
         style="fill:#fde79a"
         d="m -1133.5,873.21936 c 0,-237.69512 0.1351,-259.5 1.6072,-259.5 0.884,0 13.9342,-4.57481 29.0005,-10.16624 15.0662,-5.59144 27.5667,-9.97894 27.7789,-9.75 0.2121,0.22893 4.3103,15.26624 9.107,33.41624 16.4903,62.39647 18.821,71.00182 19.4213,71.70836 0.331,0.3896 1.1025,0.3896 1.7144,0 2.0588,-1.31074 57.3707,-74.17596 57.3707,-75.57731 0,-2.26352 -1.66972,-3.02755 -20.5,-9.38034 -49.558,-16.71941 -63.9844,-21.81998 -63.8172,-22.56301 0.1005,-0.44677 15.8505,-17.70354 35,-38.34839 19.1494,-20.64484 35.2052,-38.35075 35.6793,-39.34646 0.6674,-1.4016 -2.8795,-8.04051 -15.7084,-29.40162 l -16.5705,-27.59123 20.6482,0 c 12.495,0 23.01017,0.48785 26.6299,1.2355 4.74792,0.98066 6.06665,0.98066 6.39353,0 0.3148,-0.94439 7.54575,-1.2355 30.68935,-1.2355 l 30.27752,0 0.6642,16.25 c 0.36531,8.9375 1.14761,24.40183 1.73844,34.36517 0.59083,9.96334 0.91706,18.92589 0.72495,19.91678 -0.24534,1.26543 -9.24926,-8.21798 -30.25405,-31.86517 -16.44762,-18.51673 -30.45906,-33.66678 -31.13653,-33.66678 -0.91777,0 -14.29588,29.41056 -22.12059,48.63013 -0.29656,0.72843 5.51515,2.58496 16.35089,5.22321 9.24605,2.2512 26.26099,6.39258 37.81099,9.20307 26.50129,6.44861 31.65543,7.12182 45.19694,5.90341 5.94168,-0.53461 18.97122,-1.66669 28.95453,-2.51573 9.9833,-0.84905 21.0083,-1.85881 24.5,-2.24391 l 6.34853,-0.70018 0.72966,-12.5 c 1.69519,-29.04053 4.29814,-52.67066 5.98803,-54.36055 1.51371,-1.51371 31.78737,-1.63945 394.71088,-1.63945 l 393.07143,0 0,338 0,338.00004 -544,0 -544,0 0,-259.50004 z m 30.1056,-306.04759 c -15.0669,-11.74587 -27.8919,-21.2653 -28.5,-21.15427 -0.651,0.11886 -1.233,-1.80183 -1.4154,-4.67108 -0.3372,-5.30302 0.4627,-8.77186 1.6136,-6.9979 0.4497,0.6932 13.7902,-4.33646 37.6834,-14.20751 20.3429,-8.40434 37.105,-15.16282 37.2489,-15.01886 0.144,0.14396 -1.9349,9.67473 -4.6198,21.17948 -2.6849,11.50475 -6.9773,29.91773 -9.5388,40.91773 -2.5614,11 -4.7517,20.29442 -4.8673,20.65428 -0.1156,0.35985 -12.5377,-8.95599 -27.6046,-20.70187 z"
         id="path4341"
         inkscape:connector-curvature="0" />
      <path
         style="fill:#fdd484"
         d="m -1133.5,937.89585 0,-194.8235 25.25,-12.36551 c 13.8875,-6.80103 33.319,-16.33045 43.1811,-21.1765 9.8621,-4.84604 18.6528,-8.81098 19.5349,-8.81098 0.9329,0 13.4095,-15.43009 29.8192,-36.87772 15.5183,-20.28275 28.87826,-37.42801 29.68866,-38.10059 1.25676,-1.04302 1.27547,-1.61252 0.1272,-3.87228 -0.74045,-1.45717 -1.6468,-5.34941 -2.0141,-8.64941 -0.36731,-3.3 -1.29792,-10.725 -2.06802,-16.5 -0.77011,-5.775 -2.10762,-15.9 -2.97225,-22.5 -0.86463,-6.6 -2.72052,-20.55 -4.1242,-31 -3.70909,-27.61353 -3.83639,-29.12618 -2.51821,-29.94085 0.63573,-0.39289 19.25483,3.61808 41.37579,8.91327 22.12096,5.2952 41.18279,9.82624 42.35963,10.06898 3.00481,0.61978 3.23356,1.82679 2.27052,11.98007 -2.08045,21.93395 -4.02604,46.61654 -3.73172,47.34214 0.2419,0.59634 65.71748,-54.16638 78.39036,-65.56442 1.81702,-1.63424 2.22215,-3.86551 3.32817,-18.32997 0.69263,-9.05807 1.65209,-20.06922 2.13215,-24.46922 0.48005,-4.4 1.17863,-12.17156 1.55238,-17.27014 l 0.67956,-9.27014 40.36944,0.0629 c 22.20319,0.0346 40.36944,0.42542 40.36944,0.86856 0,0.44315 3.2267,0.89994 7.17045,1.01509 3.94375,0.11516 8.71559,0.85498 10.6041,1.64405 3.02548,1.26412 3.36557,1.25725 2.86093,-0.0578 -0.35376,-0.92191 0.0113,-1.49247 0.95492,-1.49247 0.8402,0 1.24952,-0.45 0.9096,-1 -0.41156,-0.66592 113.48962,-1 340.94098,-1 l 341.55902,0 0,338 0,338.00009 -544,0 -544,0 0,-194.8236 z m 213,-309.73551 c 0,-27.39124 -0.12184,-29.43753 -1.75,-29.39142 -3.29558,0.0933 -60.75,23.62539 -60.75,24.88186 0,1.48193 60.37432,35.26429 61.63277,34.48652 0.47698,-0.29478 0.86723,-13.78442 0.86723,-29.97696 z m -95.3809,-144.46913 c -8.1845,-13.73452 -15.272,-24.97185 -15.75,-24.97185 -0.478,0 -0.8691,-0.45 -0.8691,-1 0,-0.63279 7.2265,-1 19.6795,-1 17.45385,0 20.39433,0.24145 26,2.13495 3.47628,1.17423 6.33169,2.63673 6.34536,3.25 0.0357,1.60055 -19.22972,46.62065 -19.93586,46.5869 -0.324,-0.0155 -7.2854,-11.26548 -15.4699,-25 z"
         id="path4339"
         inkscape:connector-curvature="0" />
      <path
         style="fill:#fdc86f"
         d="m -1133.5,969.25454 0,-163.46481 2.1048,-1.12647 c 1.8357,-0.98244 8.2746,-5.87663 39.8952,-30.32412 23.8099,-18.40866 28,-21.86909 28,-23.12391 0,-0.82224 -1.3483,-1.6004 -3.25,-1.87565 -3,-0.43421 -30.6841,-2.74575 -50.75,-4.23747 -4.675,-0.34754 -9.175,-0.99893 -10,-1.44753 -1.053,-0.57257 7.8872,-5.41104 30,-16.23614 17.325,-8.48127 35.7114,-17.50818 40.8587,-20.05979 5.1472,-2.55161 10.0972,-4.62583 11,-4.60939 1.0947,0.0199 7.9683,11.07215 20.6413,33.18989 10.45,18.23799 20.0135,34.31204 21.2523,35.7201 2.0695,2.35239 2.3584,2.4236 3.5608,0.87771 0.71967,-0.92532 3.30616,-2.42967 5.74771,-3.34301 2.44156,-0.91333 5.33919,-2.05564 6.43919,-2.53846 1.64448,-0.72181 19.92164,-7.67567 44.5,-16.9308 2.475,-0.93198 5.76679,-2.21444 7.3151,-2.84992 1.5483,-0.63547 3.43425,-1.15541 4.19098,-1.15541 0.75674,0 1.6326,-0.41538 1.94637,-0.92306 0.31377,-0.50769 1.94564,-1.2251 3.62638,-1.59425 1.68074,-0.36916 4.26308,-1.30101 5.73853,-2.07078 1.47545,-0.76977 3.39514,-1.40236 4.26597,-1.40575 0.87084,-0.003 1.90402,-0.32685 2.29597,-0.7188 1.21943,-1.21942 10.00887,-4.28569 12.28737,-4.28655 1.19166,-4.4e-4 2.35078,-0.55315 2.57581,-1.22824 0.22503,-0.67509 -1.78842,-8.66259 -4.47432,-17.75 -2.6859,-9.08741 -5.49937,-18.77257 -6.25215,-21.52257 -0.75277,-2.75 -2.783,-9.725 -4.5116,-15.5 -4.61377,-15.41389 -4.78073,-16.27245 -4.24626,-21.83483 0.78365,-8.15564 -0.87696,-60.16517 -1.92102,-60.16517 -0.51443,0 -14.52573,5.37761 -31.13622,11.95025 -16.6105,6.57264 -30.83874,12.08514 -31.61831,12.25 -1.7922,0.37901 -2.51983,-2.49365 -4.48336,-17.70025 -4.22094,-32.68911 -7.25409,-55.73769 -9.6521,-73.34529 -1.14945,-8.4399 -1.84417,-15.59101 -1.54383,-15.89135 0.30034,-0.30034 3.59496,0.18329 7.32138,1.07474 59.29896,14.18572 76.34085,18.3941 76.94872,19.00198 0.30755,0.30755 -0.15602,7.89435 -1.03016,16.85955 -2.61969,26.8675 -3.96275,43.8142 -3.50838,44.26858 0.23563,0.23562 3.56418,0.0306 7.39677,-0.45569 3.8326,-0.48626 14.16836,-1.61094 22.96836,-2.4993 8.8,-0.88836 21.85,-2.25191 29,-3.03012 7.15,-0.7782 20.2,-2.14403 29,-3.03517 8.8,-0.89114 18.67214,-1.91898 21.9381,-2.28409 l 5.9381,-0.66384 30.21169,-37 30.2117,-37 9.10945,-22.5 c 5.01019,-12.375 9.10251,-22.95 9.09404,-23.5 -0.008,-0.55 -0.66094,-2.2375 -1.44994,-3.75 l -1.43453,-2.75 8.19069,0.0153 c 5.65758,0.0106 7.7268,0.31511 6.6907,0.98469 -1.18901,0.7684 -0.98235,0.97255 0.9968,0.98469 2.21814,0.0136 1.96005,0.39693 -2.31241,3.43454 l -4.80922,3.41923 6.81242,5.06372 c 3.74682,2.78504 7.26241,5.4141 7.81241,5.84234 0.55,0.42824 5.725,4.1431 11.5,8.25525 5.775,4.11214 10.65,7.81944 10.83333,8.23843 0.18334,0.41899 0.76514,0.7618 1.29291,0.7618 1.1837,0 11.87376,7.99508 11.87376,8.88036 0,0.35204 1.14321,1.87298 2.54047,3.37986 l 2.54047,2.73978 27.34824,0 27.34824,0 0.5403,-3.25 c 0.29716,-1.7875 1.52044,-12.25 2.7184,-23.25 1.19795,-11 2.63449,-21.2375 3.19231,-22.75 l 1.01421,-2.75 37.29535,0 c 27.54362,0 37.39711,0.3053 37.68454,1.1676 0.29671,0.89013 1.49112,0.89013 5.02616,0 3.46979,-0.8737 63.92881,-1.1676 240.19413,-1.1676 l 235.55718,0 0,338 0,338.00005 -544,0 -544,0 0,-163.46487 z M -738.3242,644.6384 c 0.37169,-9.03047 0.87386,-19.45304 1.11593,-23.16127 0.26682,-4.08749 7.2e-4,-7.33863 -0.67581,-8.2569 -0.99741,-1.35381 -60.80661,-27.50087 -62.90593,-27.50087 -0.47115,0 -0.71114,0.67602 -0.53331,1.50227 0.53433,2.48268 60.03415,74.59393 61.22335,74.2001 0.70265,-0.2327 1.34408,-6.29499 1.77577,-16.78333 z m 227.27786,-67.03857 c 0.6764,-0.67727 -9.1845,-41.96722 -10.27947,-43.0426 -0.3708,-0.36416 -10.54806,9.4675 -22.61611,21.84814 l -21.94193,22.51026 27.10939,-0.34813 c 14.91016,-0.19148 27.38782,-0.62693 27.72812,-0.96767 z m -10.45694,-54.18949 c -0.002,-2.30504 -0.64775,-10.94098 -1.43543,-19.19098 -0.78768,-8.25 -1.97878,-21.1875 -2.64689,-28.75 -0.82185,-9.30278 -1.60053,-13.75 -2.40754,-13.75 -0.65605,0 -6.10097,3.06397 -12.09983,6.80883 -5.99887,3.74486 -22.38203,13.92309 -36.40703,22.61829 -14.025,8.6952 -26.11268,16.38497 -26.86151,17.08839 -1.66687,1.56578 -2.04783,1.43335 15.36151,5.33999 18.98624,4.2605 43.54688,9.85787 55,12.5345 5.5,1.28537 10.3375,2.1469 10.75,1.9145 0.4125,-0.23239 0.74852,-2.30848 0.74672,-4.61352 z"
         id="path4337"
         inkscape:connector-curvature="0" />
      <path
         style="fill:#fdb36f"
         d="m -1133.5,969.17552 c 0,-131.32362 0.2491,-163.48662 1.2645,-163.25345 1.1414,0.26211 15.6223,-10.61465 54.6255,-41.02989 7.3646,-5.74295 14.1092,-10.49372 14.9882,-10.55727 1.2868,-0.093 1.7365,1.44276 2.3085,7.88445 0.3908,4.4 1.4265,15.2 2.3016,24 0.8752,8.8 2.2555,22.75 3.0675,31 0.8119,8.25 1.7325,17.41106 2.0457,20.35791 l 0.5694,5.35791 3.1645,-0.64212 c 1.7405,-0.35316 6.5396,-1.08886 10.6646,-1.63487 4.125,-0.54601 12,-1.62731 17.5,-2.40289 5.5,-0.77557 14.3764,-1.96701 19.7252,-2.64764 9.05355,-1.15203 9.69145,-1.38085 9.23574,-3.3129 -0.26924,-1.14147 -2.30261,-9.7254 -4.51861,-19.0754 -7.19723,-30.36742 -8.07093,-34.77136 -7.09263,-35.74973 0.5808,-0.58073 1.666,-0.54467 2.8614,0.0951 1.05913,0.56686 22.1415,17.04554 46.84967,36.61929 24.70817,19.57376 45.60238,35.45891 46.43158,35.30034 1.16514,-0.22282 1.66799,-2.55752 2.21342,-10.27666 0.38818,-5.49358 1.3929,-18.98833 2.23272,-29.98833 0.83982,-11 2.23042,-29.675 3.09023,-41.5 0.8598,-11.825 1.79995,-23.8625 2.08923,-26.75 l 0.52596,-5.25 40.97768,0 40.97768,0 16.70037,-15.79029 c 9.1852,-8.68466 25.89003,-24.47485 37.12185,-35.08931 11.23182,-10.61446 21.35682,-19.88795 22.5,-20.60776 1.76333,-1.11029 6.70342,-0.64766 32.57851,3.05091 34.3982,4.91686 46.0226,6.13878 45.95129,4.83023 -0.0268,-0.49158 -5.53929,-5.20804 -12.25,-10.48104 C -709.62316,632.69702 -732.5,614.27787 -732.5,613.56397 c 0,-0.44358 1.0125,-1.03246 2.25,-1.30863 1.2375,-0.27616 11.475,-2.73585 22.75,-5.46596 11.275,-2.73012 27.5875,-6.66738 36.25,-8.74949 12.06496,-2.8999 15.75,-4.15417 15.75,-5.36076 0,-1.23828 -63.36954,-62.81723 -81.41601,-79.11549 -2.88313,-2.60384 -3.73233,-4.01533 -3.2196,-5.35148 0.66094,-1.72238 2.49487,-1.78265 36.00727,-1.18333 19.42097,0.34731 36.0225,0.90455 36.89228,1.23832 0.86978,0.33377 1.87265,1.35955 2.2286,2.27953 0.35596,0.91997 2.84057,16.74768 5.52137,35.17268 6.21009,42.68164 6.0959,42 7.03571,42 0.43671,0 9.88664,-16.7625 20.99985,-37.25 11.11321,-20.4875 21.0003,-38.15 21.97131,-39.25 1.72679,-1.95619 2.90066,-9.78214 6.07486,-40.5 0.53992,-5.225 1.19785,-10.5125 1.46207,-11.75 l 0.48039,-2.25 37.48095,0 c 30.04174,0 37.48095,0.25742 37.48095,1.29695 0,0.71332 -18,12.48224 -40,26.15316 -22,13.67092 -40,25.22472 -40,25.67511 0,1.18948 6.45474,2.86363 46,11.93092 19.525,4.47686 35.9362,8.55438 36.46933,9.06114 0.61002,0.57984 -4.95316,6.93773 -15.00813,17.15205 -25.24464,25.64471 -29.89476,30.63044 -29.20856,31.31664 0.77688,0.77688 56.24467,0.54416 58.30016,-0.24461 0.79596,-0.30543 1.43325,-1.29469 1.41621,-2.19835 -0.0171,-0.90365 -2.50887,-11.31801 -5.53737,-23.14301 -5.39581,-21.06831 -5.57452,-22.22283 -8.90048,-57.5 -1.86676,-19.8 -3.08744,-36.26164 -2.71263,-36.58142 3.28464,-2.8024 13.01948,-2.91858 244.54749,-2.91858 l 235.63398,0 0,338 0,338.00004 -544,0 -544,0 0,-163.54388 z m 613.83333,-274.30226 c -2.61325,-6.63321 -50.52357,-109.12839 -51.01594,-109.13908 -0.37544,-0.008 -0.99846,0.99768 -1.3845,2.23518 -0.38604,1.2375 -5.83709,15.3 -12.11344,31.25 -6.27635,15.95 -14.57527,37.04305 -18.44205,46.87345 -3.86677,9.8304 -6.65855,18.22713 -6.20395,18.65941 0.4546,0.43227 14.77655,2.43635 31.82655,4.45351 17.05,2.01717 35.5,4.25031 41,4.96255 12.41325,1.60749 16.76285,1.79522 16.33333,0.70498 z M -1041.5,832.77838 c 0,-0.51754 0.45,-1.2191 1,-1.55902 0.55,-0.33992 1,0.0835 1,0.94098 0,0.85746 -0.45,1.55902 -1,1.55902 -0.55,0 -1,-0.42344 -1,-0.94098 z m 3,-4.93658 c 0,-0.48265 0.675,-1.43775 1.5,-2.12244 1.2532,-1.04007 1.5,-0.89568 1.5,0.87756 0,1.21995 -0.6378,2.12244 -1.5,2.12244 -0.825,0 -1.5,-0.3949 -1.5,-0.87756 z m 12,-16.06342 c 0,-0.51754 0.45,-1.2191 1,-1.55902 0.55,-0.33992 1,0.0835 1,0.94098 0,0.85746 -0.45,1.55902 -1,1.55902 -0.55,0 -1,-0.42344 -1,-0.94098 z m 4,-5.5 c 0,-0.79254 0.45,-1.7191 1,-2.05902 0.55,-0.33992 1,0.30852 1,1.44098 0,1.13246 -0.45,2.05902 -1,2.05902 -0.55,0 -1,-0.64844 -1,-1.44098 z m 298.44887,-343.80977 c -0.37699,-1.23709 -1.37695,-3.03675 -2.22214,-3.99925 -1.4475,-1.64842 -1.08438,-1.75 6.25579,-1.75 l 7.79249,0 -3.88751,3.09455 c -6.18092,4.92017 -7.14955,5.24408 -7.93863,2.6547 z"
         id="path4335"
         inkscape:connector-curvature="0" />
      <path
         style="fill:#fdaa50"
         d="m -1133.5,1063.886 c 0,-64.85923 0.101,-68.8378 1.75,-68.91109 1.7835,-0.0793 6.4228,0.35985 34.8257,3.29626 8.8416,0.91408 16.8666,1.50137 17.8332,1.30508 1.1338,-0.23025 2.5816,-2.66339 4.0798,-6.85689 1.2773,-3.575 7.4858,-19.55 13.7966,-35.5 6.3109,-15.95 11.2885,-29.31867 11.0614,-29.70816 -0.3833,-0.65728 -78.0179,-26.63415 -81.3467,-27.21897 -1.1725,-0.20599 -1.5,-1.85947 -1.5,-7.57287 0,-5.72694 0.3247,-7.3598 1.5,-7.5424 0.825,-0.12818 19.5,-9.10006 41.5,-19.9375 l 40,-19.70444 17,-2.28926 c 9.35,-1.25909 23.4125,-3.11673 31.25,-4.12809 7.8375,-1.01136 14.25,-2.14842 14.25,-2.52679 0,-0.37838 -2.95351,-12.90254 -6.56336,-27.83147 -3.60985,-14.92893 -6.42234,-27.8339 -6.25004,-28.67771 0.2111,-1.03358 14.18172,9.45645 42.8134,32.14707 23.375,18.52471 44.46114,35.50874 46.85809,37.7423 4.1917,3.90597 4.33636,4.2364 3.78915,8.65465 -0.99624,8.0436 -2.93903,49.13519 -2.3509,49.72331 0.72194,0.72194 68.61507,-10.54954 70.95366,-11.77958 1.61424,-0.84905 1.75,-3.55471 1.75,-34.87616 l 0,-33.95571 -30,-44.51822 c -16.5,-24.48502 -30,-45.18912 -30,-46.00911 0,-1.29697 5.3384,-1.49089 41.0424,-1.49089 l 41.04239,0 34.70761,-32.66421 c 19.08918,-17.96532 36.39416,-34.25573 38.45551,-36.20091 l 3.74792,-3.5367 12.25208,1.71371 c 30.71811,4.29657 54.7199,7.58711 59.88794,8.21036 l 5.63584,0.67967 0.62782,-8.85096 c 0.3453,-4.86803 1.54046,-22.57112 2.6559,-39.3402 1.6501,-24.80686 2.34646,-30.94969 3.73634,-32.95979 0.93954,-1.35881 11.16349,-19.80849 22.71989,-40.99931 11.5564,-21.19081 21.6814,-38.64423 22.5,-38.78536 1.03201,-0.17793 6.87245,10.08999 19.04843,33.48855 l 17.56007,33.74515 23.93993,0.30621 c 13.16696,0.16842 27.19815,0.0179 31.18041,-0.33443 l 7.24048,-0.64064 26.75952,-31.11427 c 14.71774,-17.11285 27.11442,-31.69099 27.54818,-32.39586 0.43376,-0.70487 4.83981,-13.10295 9.79123,-27.5513 4.95142,-14.44834 9.48694,-27.50316 10.07894,-29.01071 l 1.07636,-2.74101 193.8824,-0.008 193.88241,-0.008 0,337.99878 0,337.99877 -544,0 -544,0 0,-68.8334 z m 215.52118,-74.28567 c 0.76073,-7.90953 2.08075,-21.58097 2.93338,-30.38097 4.09458,-42.25986 4.64027,-48.7385 4.14681,-49.23196 -0.29183,-0.29183 -9.20902,-1.17453 -19.81598,-1.96157 C -941.32157,907.2388 -959.9,905.80242 -972,904.83389 c -12.1,-0.96854 -22.14896,-1.65406 -22.33102,-1.5234 -0.80495,0.57772 4.20446,7.72057 37.65784,53.69582 21.20997,29.14902 35.86396,48.42229 36.40526,47.88099 0.49828,-0.4983 1.52838,-7.37743 2.2891,-15.28697 z M -978,889.47443 c 7.15,-4.12506 21.91455,-12.73248 32.81011,-19.12759 10.89556,-6.39512 19.99243,-11.62748 20.21527,-11.62748 0.22284,0 2.44585,-1.29416 4.94002,-2.87592 l 4.53485,-2.87592 -8.75013,-1.62048 c -4.81256,-0.89126 -16.17512,-2.97112 -25.25012,-4.6219 -9.075,-1.65078 -20.1,-3.67775 -24.5,-4.50438 -4.4,-0.82662 -8.76711,-1.5026 -9.70469,-1.50218 -1.8767,8.6e-4 -1.9945,0.51398 -3.7881,16.50078 -2.85357,25.43464 -4.01099,35.2109 -4.47514,37.79971 -0.27607,1.53984 -0.17123,2.60976 0.23299,2.37759 0.40422,-0.23216 6.58494,-3.79716 13.73494,-7.92223 z m 458.19888,-195.00507 c -0.28331,-0.6875 -9.57012,-20.825 -20.63735,-44.75 -11.06724,-23.925 -22.24609,-48.11232 -24.84189,-53.7496 -2.5958,-5.63727 -5.02682,-10.24977 -5.40225,-10.25 -0.37544,-2.2e-4 -0.99846,1.0121 -1.3845,2.2496 -0.38604,1.2375 -5.83709,15.3 -12.11344,31.25 -6.27635,15.95 -14.57527,37.04305 -18.44205,46.87345 -3.86677,9.8304 -6.65855,18.23377 -6.20395,18.67417 0.4546,0.44039 6.67655,1.48721 13.82655,2.32627 32.87844,3.85828 49.76462,5.88392 59,7.07755 13.73629,1.77535 16.83094,1.83239 16.19888,0.29856 z"
         id="path4333"
         inkscape:connector-curvature="0" />
      <path
         style="fill:#f2966a"
         d="m -1133.5,1063.886 c 0,-64.85923 0.101,-68.8378 1.75,-68.91109 1.7835,-0.0793 6.4228,0.35985 34.8257,3.29626 8.8416,0.91408 16.8666,1.50137 17.8332,1.30508 1.1339,-0.23026 2.5814,-2.66326 4.0796,-6.85689 4.9768,-13.93087 24.8333,-63.5809 25.9955,-65 0.9717,-1.18655 0.9556,-5.99282 -0.077,-23 -0.7181,-11.825 -1.7959,-29.55998 -2.3951,-39.41106 -0.761,-12.5099 -0.7728,-18.2277 -0.039,-18.96111 1.585,-1.58506 55.32559,52.93217 57.79759,58.63293 2.2984,5.30042 72.54082,100.82858 73.46229,99.90718 0.49828,-0.4983 1.52859,-7.37743 2.28956,-15.28697 0.76098,-7.90953 2.10124,-21.80597 2.97836,-30.88097 4.9672,-51.39243 4.4009,-48 8.01267,-48 3.78897,0 67.77866,-10.9352 70.56176,-12.0583 2.19023,-0.88385 5.1004,-0.0481 19.5,5.60001 9.30906,3.65139 20.30057,7.91711 24.42557,9.47936 4.125,1.56226 17.38082,6.6933 29.45738,11.40232 12.07655,4.70902 22.2655,8.22768 22.64209,7.81923 0.77008,-0.8352 0.77562,-0.78744 -5.59647,-48.24262 -0.77544,-5.775 -2.15608,-16.35 -3.06809,-23.5 -0.91202,-7.15 -2.17046,-16.58763 -2.79656,-20.9725 l -1.13835,-7.9725 -4,-0.68206 c -2.2,-0.37513 -20.2,-1.21079 -40,-1.85702 l -36,-1.17496 -2.73572,-3.17048 c -4.44626,-5.15286 -58.05266,-85.03327 -58.1631,-86.67048 -0.0633,-0.93776 0.74218,-1.47323 2.14882,-1.42857 1.2375,0.0393 18.675,0.15178 38.75,0.25 34.80081,0.17026 36.5,0.26481 36.5,2.03114 0,1.01891 -1.54007,8.55641 -3.42237,16.75 -5.6205,24.46577 -13.41734,58.59948 -14.42417,63.14743 -0.70119,3.16735 -0.63422,4.25 0.2629,4.25 0.66208,0 18.69513,-11.025 40.07346,-24.5 21.37832,-13.475 39.40863,-24.5 40.06734,-24.5 0.65872,0 22.51533,17.99861 48.57025,39.99692 26.05493,21.9983 47.90261,39.9983 48.55042,40 1.3973,0.004 46.1325,-31.38278 48.35296,-33.92467 1.13064,-1.29432 2.12475,-8.26386 3.803,-26.66232 1.24972,-13.70046 2.46901,-25.87094 2.70954,-27.04551 0.24054,-1.17457 -0.12081,-2.59178 -0.803,-3.14936 -1.12103,-0.91628 -72.04358,-24.09309 -80.95857,-26.45649 -2.5025,-0.66343 -4.33205,-2.01122 -5.59555,-4.12215 -1.03253,-1.72503 -12.07051,-17.50024 -24.52884,-35.05602 -12.45832,-17.55578 -22.4608,-32.11031 -22.22771,-32.34339 0.37812,-0.37812 15.06453,1.57706 58.70016,7.81465 15.62197,2.23311 18.49515,2.36417 19.40912,0.88533 0.75357,-1.21929 1.63044,-11.79089 4.01766,-48.43699 0.93153,-14.3 2.02589,-26.366 2.43189,-26.81334 0.40601,-0.44734 2.66982,3.60266 5.03069,9 2.36087,5.39734 10.22811,23.31334 17.48275,39.81334 7.25464,16.5 13.819,31.74026 14.58745,33.86725 0.76846,2.12698 2.30021,4.20571 3.40391,4.61939 1.10369,0.41369 13.93171,2.17148 28.50671,3.90621 14.575,1.73473 31.675,3.79403 38,4.57622 22.96235,2.83965 27,3.00616 27,1.11344 0,-0.93134 -11.50564,-26.6368 -25.56809,-57.12324 -14.06246,-30.48644 -25.2859,-55.8865 -24.94099,-56.44458 0.3957,-0.64025 9.40761,-1.01469 24.42141,-1.01469 13.08686,0 26.52059,-0.28496 29.85274,-0.63323 l 6.05846,-0.63324 25.33823,-29.52362 c 13.93603,-16.23799 26.16609,-31.08574 27.17791,-32.99499 1.01182,-1.90926 5.86788,-15.22617 10.79124,-29.59315 4.92335,-14.36697 9.43592,-27.35522 10.02792,-28.86277 l 1.07636,-2.74101 193.8824,-0.008 193.88241,-0.008 0,337.99878 0,337.99877 -544,0 -544,0 0,-68.8334 z m 685.12829,-311.14026 c 2.051,-29.13821 3.21695,-52.02638 2.65028,-52.02638 -0.23615,0 -2.87043,3.025 -5.85396,6.72222 -2.98354,3.69722 -15.8988,19.52553 -28.70059,35.17402 -12.80179,15.64849 -22.92679,28.78289 -22.5,29.18756 0.99338,0.94189 41.16202,4.79176 47.76398,4.57783 l 4.988,-0.16163 1.65229,-23.47362 z m 77.75578,-0.27638 c 0.64246,-5.0875 1.82532,-14.425 2.62858,-20.75 0.80326,-6.325 2.59993,-20.95 3.9926,-32.5 1.39268,-11.55 2.78448,-22.2375 3.0929,-23.75 0.33648,-1.65012 0.12833,-2.75 -0.52044,-2.75 -1.21752,0 -77.16401,25.75297 -77.78869,26.37764 -0.46197,0.46198 65.84072,62.62236 66.79546,62.62236 0.34732,0 1.15713,-4.1625 1.79959,-9.25 z M -929.5,908.18214 c -8.525,-0.69726 -26.1875,-2.05344 -39.25,-3.01373 -13.0625,-0.9603 -23.75,-2.11762 -23.75,-2.57184 0,-0.45422 1.4625,-1.57689 3.25,-2.49483 1.7875,-0.91794 7.525,-4.23684 12.75,-7.37533 5.225,-3.13848 11.975,-7.08606 15,-8.77239 3.025,-1.68633 9.325,-5.32022 14,-8.07531 4.675,-2.75509 12.325,-7.21992 17,-9.92184 26.05563,-15.0589 24.50184,-14.59938 23.62719,-6.98751 -0.33179,2.8875 -1.08859,14.925 -1.68176,26.75 -0.59318,11.825 -1.25944,22.0625 -1.48059,22.75 -0.22114,0.6875 -1.20369,1.18937 -2.18346,1.11526 -0.97976,-0.0741 -8.75638,-0.70522 -17.28138,-1.40248 z"
         id="path4331"
         inkscape:connector-curvature="0" />
      <path
         style="fill:#f58e4a"
         d="m -1127.8852,1131.4694 c 0.3036,-0.6875 14.0645,-13.6048 30.5798,-28.705 16.5153,-15.1002 30.6422,-28.3925 31.393,-29.5384 1.1568,-1.7655 1.141,-3.4513 -0.1037,-11.0451 -3.0195,-18.4213 -8.4839,-55.3827 -8.4839,-57.385 0,-1.1421 0.5938,-2.0765 1.3195,-2.0765 0.7257,0 12.0882,1.5952 25.25,3.5449 34.6903,5.1388 43.2707,6.0627 49.4305,5.3224 3.025,-0.3635 18.55,-1.1951 34.5,-1.848 15.95,-0.6528 32.59687,-1.4868 36.99305,-1.8532 l 7.99306,-0.6661 0.70008,-5 c 0.38504,-2.75004 1.39359,-12.42504 2.24122,-21.50004 2.26202,-24.21791 5.46939,-57.65029 6.16388,-64.25 0.54341,-5.16393 0.84028,-5.75 2.91258,-5.75 3.79513,0 67.78354,-10.93362 70.57056,-12.0583 2.19023,-0.88385 5.1004,-0.0481 19.5,5.60001 9.30906,3.65139 20.30057,7.91711 24.42557,9.47936 4.125,1.56226 17.38082,6.6933 29.45738,11.40232 12.07655,4.70902 22.2655,8.22768 22.64209,7.81923 0.77008,-0.8352 0.77562,-0.78744 -5.59647,-48.24262 -0.77544,-5.775 -2.15608,-16.35 -3.06809,-23.5 -0.91202,-7.15 -2.17046,-16.58763 -2.79656,-20.9725 l -1.13835,-7.9725 -4,-0.68206 c -2.2,-0.37513 -20.2,-1.21079 -40,-1.85702 l -36,-1.17496 -2.73572,-3.17048 c -4.44626,-5.15286 -58.05266,-85.03327 -58.1631,-86.67048 -0.0633,-0.93776 0.74218,-1.47323 2.14882,-1.42857 1.2375,0.0393 18.675,0.15178 38.75,0.25 34.80081,0.17026 36.5,0.26481 36.5,2.03114 0,1.01891 -1.54007,8.55641 -3.42237,16.75 -5.6205,24.46577 -13.41734,58.59948 -14.42417,63.14743 -0.70119,3.16735 -0.63422,4.25 0.2629,4.25 0.66208,0 18.69513,-11.025 40.07346,-24.5 21.37832,-13.475 39.40863,-24.5 40.06734,-24.5 0.65872,0 22.51533,17.99861 48.57025,39.99692 26.05493,21.9983 47.90261,39.9983 48.55042,40 1.3973,0.004 46.1325,-31.38278 48.35296,-33.92467 1.13064,-1.29432 2.12475,-8.26386 3.803,-26.66232 1.24972,-13.70046 2.46901,-25.87094 2.70954,-27.04551 0.24054,-1.17457 -0.12081,-2.59178 -0.803,-3.14936 -1.12103,-0.91628 -72.04358,-24.09309 -80.95857,-26.45649 -2.5025,-0.66343 -4.33205,-2.01122 -5.59555,-4.12215 -1.03253,-1.72503 -12.07051,-17.50024 -24.52884,-35.05602 -12.45832,-17.55578 -22.4608,-32.11031 -22.22771,-32.34339 0.37812,-0.37812 15.06453,1.57706 58.70016,7.81465 15.62197,2.23311 18.49515,2.36417 19.40912,0.88533 0.75357,-1.21929 1.63044,-11.79089 4.01766,-48.43699 0.93153,-14.3 2.02589,-26.366 2.43189,-26.81334 0.40601,-0.44734 2.66982,3.60266 5.03069,9 2.36087,5.39734 10.22811,23.31334 17.48275,39.81334 7.25464,16.5 13.819,31.74026 14.58745,33.86725 0.76846,2.12698 2.30021,4.20571 3.40391,4.61939 1.10369,0.41369 13.93171,2.17148 28.50671,3.90621 14.575,1.73473 31.675,3.79403 38,4.57622 22.96235,2.83965 27,3.00616 27,1.11344 0,-0.93134 -11.50564,-26.6368 -25.56809,-57.12324 -14.06246,-30.48644 -25.2859,-55.8865 -24.94099,-56.44458 0.39489,-0.63895 9.95535,-1.04713 25.8181,-1.1023 13.85504,-0.0482 27.33549,-0.38568 29.95655,-0.75 l 4.76557,-0.66239 26.54506,-30.99418 c 14.59978,-17.04679 27.15266,-31.3342 27.89528,-31.7498 2.00445,-1.12175 83.82217,-2.71394 85.12457,-1.65654 0.73762,0.59887 1.28115,12.53731 1.66211,36.50731 0.31134,19.58959 0.94312,35.96992 1.40396,36.40072 0.46083,0.4308 23.78788,-11.65715 51.83788,-26.86211 l 51,-27.6454 32.78657,-0.18438 c 31.06633,-0.17471 32.87648,-0.28617 34.5,-2.12429 0.94239,-1.06695 18.36343,-16.66693 38.71343,-34.66662 20.35,-17.99969 38.6361,-34.48126 40.6359,-36.62571 1.9997,-2.14445 3.9122,-3.899 4.25,-3.899 0.3377,0 0.6197,1.4625 0.6265,3.25 0.019,5.04499 6.8796,67.97531 7.4753,68.57102 0.2909,0.29089 3.1127,0.0278 6.2706,-0.58464 6.4275,-1.24654 40.8499,-9.01756 43.3493,-9.7863 0.9908,-0.30474 2.302,-3.05995 3.4175,-7.18081 4.6824,-17.29837 4.4622,-32.33012 4.4687,304.98073 l 0.0062,316.75004 -541.46862,0 c -432.80258,0 -541.35788,-0.2509 -540.91658,-1.25 z m 191.00905,-37.4316 c 17.53188,-19.6248 32.26259,-36.3223 32.7349,-37.1055 1.82947,-3.0337 -1.7032,-3.9536 -21.35875,-5.5615 -55.99653,-4.581 -58,-4.5845 -58,-0.1014 0,2.5516 11.68213,73.611 12.60942,76.7 0.28895,0.9625 0.88826,1.75 1.33182,1.75 0.44356,0 15.15073,-16.0567 32.68261,-35.6816 z m 488.50444,-341.29206 c 2.051,-29.13821 3.21695,-52.02638 2.65028,-52.02638 -0.23615,0 -2.87043,3.025 -5.85396,6.72222 -2.98354,3.69722 -15.8988,19.52553 -28.70059,35.17402 -12.80179,15.64849 -22.92679,28.78289 -22.5,29.18756 0.99338,0.94189 41.16202,4.79176 47.76398,4.57783 l 4.988,-0.16163 1.65229,-23.47362 z m 77.75578,-0.27638 c 0.64246,-5.0875 1.82532,-14.425 2.62858,-20.75 0.80326,-6.325 2.59993,-20.95 3.9926,-32.5 1.39268,-11.55 2.78448,-22.2375 3.0929,-23.75 0.33648,-1.65012 0.12833,-2.75 -0.52044,-2.75 -1.21752,0 -77.16401,25.75297 -77.78869,26.37764 -0.46197,0.46198 65.84072,62.62236 66.79546,62.62236 0.34732,0 1.15713,-4.1625 1.79959,-9.25 z m 274.45363,-147.5 c 0.2507,-0.4125 0.075,-5.025 -0.3907,-10.25 -0.4656,-5.225 -1.5705,-18.5 -2.4552,-29.5 -1.887,-23.45987 -3.0487,-32.45693 -4.3604,-33.76861 -0.6024,-0.60237 -2.7285,-0.37244 -5.7916,0.62636 -3.6452,1.18861 -12.626,1.83198 -36.38487,2.60656 -17.34978,0.56562 -35.69493,1.32297 -40.76699,1.683 l -9.22193,0.65459 0.52315,3.09905 c 1.22137,7.23519 4.76777,35.73151 5.36373,43.09905 l 0.64711,8 42.5,7.14786 c 42.157,7.09018 49.4592,8.04791 50.3377,6.60214 z m -947.298,400.12264 c -16.2032,-2.4163 -29.8338,-4.7667 -30.2902,-5.22318 -0.4565,-0.45643 4.2957,-13.83927 10.5603,-29.73966 6.2645,-15.90039 12.1938,-31.0473 13.176,-33.6598 0.9823,-2.6125 2.0964,-4.75 2.476,-4.75 0.5879,0 8.8793,15.28239 37.2997,68.75004 l 4.9168,9.25 -4.3392,-0.1171 c -2.3865,-0.064 -17.5963,-2.094 -33.7994,-4.5103 z m -4.4712,-81.62264 c -0.2871,-1.7875 -0.9954,-12.475 -1.5738,-23.75 -0.5784,-11.275 -1.508,-27.43339 -2.0657,-35.90754 -0.7127,-10.82963 -0.6978,-15.72363 0.05,-16.4714 0.7519,-0.75181 8.7022,6.55389 27.1053,24.90754 14.3229,14.28427 26.50714,26.8114 27.07627,27.83806 0.75817,1.36769 0.67454,2.20978 -0.31285,3.15025 -1.51356,1.44164 -47.32392,23.48309 -48.80662,23.48309 -0.5227,0 -1.1853,-1.4625 -1.4725,-3.25 z M -932,905.65937 c -4.4,-0.42914 -16.325,-1.29712 -26.5,-1.92886 -10.175,-0.63173 -20.84748,-1.45517 -23.71662,-1.82987 l -5.21662,-0.68128 39.12121,-22.76207 c 21.51667,-12.51914 39.21856,-22.64414 39.33754,-22.5 0.11897,0.14414 -0.12722,4.98707 -0.54711,10.76207 -0.41989,5.775 -1.09121,17.1375 -1.49181,25.25 l -0.72838,14.75 -6.1291,-0.13987 C -921.2419,906.50256 -927.6,906.08851 -932,905.65937 Z"
         id="path4329"
         inkscape:connector-curvature="0" />
      <path
         style="fill:#fc8b3b"
         d="m -1127.8852,1131.4694 c 0.3036,-0.6875 14.0645,-13.6048 30.5798,-28.705 16.5153,-15.1002 30.6422,-28.3925 31.393,-29.5384 1.1568,-1.7655 1.141,-3.4513 -0.1037,-11.0451 -3.0195,-18.4213 -8.4839,-55.3827 -8.4839,-57.385 0,-1.1421 0.5938,-2.0765 1.3195,-2.0765 0.7257,0 12.0882,1.5947 25.25,3.5438 13.1618,1.9491 27.7555,3.9886 32.4305,4.5322 4.675,0.5436 9.482,1.1998 10.6821,1.4582 1.6533,0.3559 4.2789,4.5291 10.83276,17.2178 4.7578,9.2114 8.67,17.873 8.69376,19.248 0.0703,4.0667 11.84551,76.2959 12.83828,78.75 0.50062,1.2375 1.53896,2.25 2.30742,2.25 1.70121,0 67.64568,-73.7397 67.64568,-75.6421 0,-0.7419 -2.43362,-8.2134 -5.40804,-16.6034 -9.16677,-25.8568 -10.06236,-28.6175 -9.47449,-29.2053 0.31318,-0.3132 12.67737,-2.332 27.47597,-4.4861 14.79861,-2.1542 33.43156,-4.87488 41.40656,-6.046 7.975,-1.17111 14.91529,-2.54186 15.42287,-3.04609 0.56349,-0.55978 0.44256,-1.97098 -0.31053,-3.62383 -0.74619,-1.6377 -1.58832,-11.22761 -2.1319,-24.27713 -0.49417,-11.86355 -1.39205,-31.39372 -1.99528,-43.40037 -1.12284,-22.3487 -0.88079,-24.66972 2.57269,-24.66972 1.09449,0 27.35453,9.98272 54.44215,20.69611 32.63029,12.90557 39.46221,15.26884 40.62833,14.05399 1.2053,-1.25568 1.10879,-2.17496 -5.06569,-48.2501 -0.81076,-6.05 -2.63138,-20 -4.04584,-31 -1.41446,-11 -2.96758,-20.94195 -3.45139,-22.09321 -0.98508,-2.34407 -0.14209,-2.27419 -54.06162,-4.4813 -14.57292,-0.59652 -26.69614,-1.2845 -26.94048,-1.52885 -0.86374,-0.86374 2.66651,-3.31454 24.43669,-16.96466 12.1,-7.58682 29.35379,-18.40774 38.34177,-24.0465 8.98797,-5.63876 16.96855,-10.01176 17.73463,-9.71779 0.76607,0.29397 22.66228,18.48585 48.65823,40.42639 25.99595,21.94054 47.49037,39.8835 47.76537,39.87323 0.275,-0.0103 11.525,-7.81508 25,-17.34402 l 24.5,-17.32534 1.20961,-11.39898 c 3.08897,-29.1096 4.3547,-45.23063 3.60651,-45.93452 -0.44887,-0.42227 -19.71389,-6.84875 -42.81117,-14.28105 -28.74113,-9.24839 -42.31222,-14.06515 -43,-15.2619 -0.55272,-0.96174 -10.40567,-15.06252 -21.89544,-31.33506 -11.48977,-16.27254 -21.77636,-30.84985 -22.85909,-32.39402 -1.08273,-1.54416 -1.72083,-3.05534 -1.418,-3.35817 0.30283,-0.30284 12.38942,1.09129 26.85909,3.09805 52.87085,7.33253 48.98986,6.97872 50.7631,4.62788 l 1.55618,-2.06308 8.49461,2.05291 c 4.67203,1.12911 10.9696,2.67797 13.9946,3.44193 3.025,0.76395 7.61485,1.91794 10.19968,2.5644 2.58482,0.64647 6.10679,2.43167 7.82659,3.96712 3.3346,2.97713 2.83572,2.87671 31.97373,6.43594 6.875,0.83978 20.375,2.4328 30,3.54003 9.625,1.10723 20.91439,2.47425 25.08754,3.03782 7.4246,1.00266 10.91246,0.63893 10.91246,-1.13802 0,-0.48774 -11.475,-25.78426 -25.5,-56.21449 -14.025,-30.43023 -25.5,-55.85803 -25.5,-56.50622 0,-0.75532 2.06481,-1.21797 5.75,-1.28839 46.9413,-0.89694 56.40451,-1.41042 57.35561,-3.11213 2.46994,-4.41926 50.20243,-58.86996 50.95061,-58.12178 1.23865,1.23865 31.26715,65.62206 31.27255,67.05075 0.003,0.66383 0.6134,1.4406 1.35752,1.72614 1.57017,0.60253 2.25943,-0.3073 30.80739,-40.66638 11.54652,-16.32366 21.32235,-29.3507 21.72407,-28.94898 0.40171,0.40171 0.89459,16.24456 1.09528,35.20632 0.20393,19.26883 0.85495,37.12249 1.4759,40.47593 0.98374,5.3126 2.19957,16.3521 6.55186,59.48946 0.94705,9.3867 1.46635,11.54804 2.83743,11.8095 1.05743,0.20166 11.48392,-8.76465 28.1869,-24.23946 14.57978,-13.50772 26.87809,-24.5595 27.3296,-24.5595 0.4515,0 3.66548,15.4125 7.14218,34.25 7.20934,39.06173 7.72708,41.37006 9.42396,42.0162 0.68153,0.25951 9.11414,-0.1105 18.73914,-0.82225 9.625,-0.71175 24.7,-1.78708 33.5,-2.38961 26.97357,-1.84686 31.57955,-2.31619 31.28445,-3.1877 C -200.872,688.12397 -222.6,671.71187 -249,652.11467 c -26.4,-19.59721 -48.35052,-36.23649 -48.77892,-36.97619 -0.9963,-1.72023 -1.21086,-1.24472 20.15496,-44.66912 l 18.08186,-36.75 30.04249,0 30.04249,0 0.93748,2.25 c 0.51561,1.2375 2.33486,13.725 4.04277,27.75 1.70792,14.025 3.43687,26.13366 3.84213,26.90814 0.40525,0.77448 1.83886,1.57424 3.18578,1.77724 1.34693,0.203 20.22396,3.33904 41.94896,6.96896 37.9786,6.34567 40.2602,6.61128 59.2384,6.89611 10.8561,0.16294 19.9799,-0.0946 20.2751,-0.57227 0.2952,-0.47768 -8.1418,-17.65569 -18.749,-38.17335 l -19.2857,-37.30483 -9.4894,0.24114 c -23.39001,0.59436 -68.16159,2.34096 -74.87274,2.92088 -4.99303,0.43146 -7.25923,0.29746 -7,-0.41391 0.21084,-0.57856 17.70834,-16.42395 38.88334,-35.21198 21.175,-18.78803 39.8977,-35.70717 41.606,-37.59809 1.7083,-1.89092 3.3958,-3.43804 3.75,-3.43804 0.3542,0 0.6496,1.4625 0.6564,3.25 0.019,5.04499 6.8796,67.97531 7.4753,68.57102 0.2909,0.29089 3.1127,0.0278 6.2706,-0.58464 6.4275,-1.24654 40.8499,-9.01756 43.3493,-9.7863 0.9908,-0.30474 2.302,-3.05995 3.4175,-7.18081 4.6824,-17.29837 4.4622,-32.33012 4.4687,304.98073 l 0.0062,316.75004 -541.46862,0 c -432.80258,0 -541.35788,-0.2509 -540.91658,-1.25 z M -803,1054.8196 c 33.05166,-42.099 37.6815,-48.1002 37.10805,-48.1002 -0.74711,0 -62.61394,78.8333 -62.57625,79.7372 0.0175,0.4195 0.58,0.064 1.25,-0.7892 0.67001,-0.8537 11.5682,-14.7352 24.2182,-30.8478 z m 149.5,-50.8686 c 0,-0.4226 -1.05084,-1.4351 -2.33521,-2.25 -1.28436,-0.8149 -20.43786,-15.60564 -42.56332,-32.86831 -22.27786,-17.38158 -40.59082,-30.99103 -41.04097,-30.5 -0.8569,0.93473 -2.38813,5.13361 -18.52259,50.79208 -2.50823,7.09798 -4.29324,13.17303 -3.96667,13.50003 0.32656,0.327 21.36913,0.8415 46.76125,1.1433 25.39213,0.3019 49.65501,0.6394 53.91751,0.75 4.2625,0.1107 7.75,-0.1445 7.75,-0.5671 z m 204.41073,-230.48164 c 0.2933,-2.3375 1.01939,-12.125 1.61351,-21.75 0.59413,-9.625 1.5049,-23.575 2.02393,-31 0.51903,-7.425 0.94553,-15.1875 0.94776,-17.25 l 0.004,-3.75 -34.5,0 c -34.11026,0 -34.5,0.0231 -34.5,2.04935 0,1.12714 2.025,16.25404 4.5,33.61533 2.475,17.3613 4.50689,32.52659 4.51531,33.70065 0.008,1.17407 0.3589,2.67519 0.77883,3.33583 0.79616,1.2525 34.86352,4.98208 47.39459,5.1886 l 6.68872,0.11024 0.53328,-4.25 z m 78.66358,-9.5 c 0.0409,-0.4125 0.21514,-1.65 0.38727,-2.75 1.20361,-7.69164 9.41579,-75.0151 10.09393,-82.75 0.37371,-4.2625 0.2891,-7.74755 -0.18802,-7.74455 -0.47712,0.003 -13.91749,4.45453 -29.86749,9.89229 -42.53399,14.50094 -49.91083,17.11759 -50.8232,18.0276 -0.65952,0.6578 25.25433,25.57395 64.3232,61.84671 4.42104,4.10463 5.9268,4.96678 6.07431,3.47795 z m -63.63569,-118.25 c 5.35176,-24.475 10.14243,-45.80465 10.64593,-47.39922 1.10724,-3.50663 1.19621,-7.59795 0.16545,-7.60833 -0.4125,-0.004 -3.45,-0.43278 -6.75,-0.9525 -3.3,-0.51972 -8.925,-1.21611 -12.5,-1.54754 -3.575,-0.33143 -9.2,-1.00304 -12.5,-1.49248 -3.3,-0.48945 -8.7,-1.15971 -12,-1.48949 -3.3,-0.32977 -7.125,-0.77588 -8.5,-0.99135 -1.375,-0.21547 -7,-0.90246 -12.5,-1.52665 -5.5,-0.62419 -11.4625,-1.35559 -13.25,-1.62534 -1.92545,-0.29058 -3.25,-0.0599 -3.25,0.56609 0,1.97828 59.37692,110.09033 60.04408,109.3268 0.36523,-0.418 5.04277,-20.78499 10.39454,-45.25999 z M -167.5,679.80571 c 12.925,-4.36206 22.8252,-7.96597 22.00045,-8.00868 -2.08787,-0.10814 -47.272,14.94654 -48.50045,16.15962 -1.25784,1.24212 -2.09595,1.49991 26.5,-8.15094 z m -818.28541,361.66369 c -4.33945,-7.4502 -13.8542,-26.9438 -13.38177,-27.4162 0.41874,-0.4187 13.86988,-1.1072 56.16718,-2.8748 14.14302,-0.591 15.76788,-0.4998 14,0.7859 -2.96894,2.1591 -53.42046,33.7551 -53.89917,33.7551 -0.22593,0 -1.52474,-1.9125 -2.88624,-4.25 z M -865.3258,780.8021 c -15.49581,-23.0545 -28.1742,-42.1795 -28.1742,-42.5 0,-0.91723 75.82193,-0.67989 76.3899,0.23912 0.27937,0.45202 -0.84029,6.63952 -2.48813,13.75 -1.64784,7.11048 -5.18769,22.60314 -7.86633,34.42814 -2.67864,11.825 -5.61849,24.7625 -6.533,28.75 -0.91451,3.9875 -1.99829,7.25 -2.40839,7.25 -0.4101,0 -13.42404,-18.86277 -28.91985,-41.91726 z m 533.10892,-179.39275 c -16.29728,-5.66517 -28.83676,-10.53635 -28.35726,-11.01585 1.21227,-1.21227 95.42108,-51.66053 95.78781,-51.2938 0.16559,0.16558 -7.6634,16.57275 -17.39773,36.46036 -12.28531,25.09933 -18.17552,36.13578 -19.25737,36.08241 -0.85721,-0.0423 -14.70617,-4.64719 -30.77545,-10.23312 z"
         id="path4327"
         inkscape:connector-curvature="0" />
      <path
         style="fill:#cf794c"
         d="m -1127.8852,1131.4694 c 0.3036,-0.6875 14.0645,-13.6048 30.5798,-28.705 16.5153,-15.1002 30.6422,-28.3925 31.393,-29.5384 1.1568,-1.7655 1.141,-3.4513 -0.1037,-11.0451 -3.0195,-18.4213 -8.4839,-55.3827 -8.4839,-57.385 0,-1.1421 0.5938,-2.0765 1.3195,-2.0765 0.7257,0 12.0882,1.5947 25.25,3.5438 13.1618,1.9491 27.7555,3.9886 32.4305,4.5322 4.675,0.5436 9.482,1.1998 10.6821,1.4582 1.6533,0.3559 4.2789,4.5291 10.83276,17.2178 4.7578,9.2114 8.67,17.873 8.69376,19.248 0.0703,4.0667 11.84551,76.2959 12.83828,78.75 0.50062,1.2375 1.53504,2.25 2.29872,2.25 1.24978,0 63.99295,-69.3668 66.78042,-73.8303 1.23826,-1.9827 0.67483,-3.9073 -9.65739,-32.9881 -2.69504,-7.5854 -4.35243,-13.6801 -3.85029,-14.1588 0.81857,-0.7804 11.04558,-2.3798 54.88164,-8.5834 23.62527,-3.3434 29.7678,-4.50239 31.5,-5.9435 3.52202,-2.93017 86.51472,-56.81778 88.17357,-57.25158 1.0234,-0.26763 1.82643,0.0529 1.82643,0.72908 0,0.66369 -4.95,15.01545 -11,31.89281 -6.05,16.87735 -11,31.18359 -11,31.79169 0,1.7436 12.71951,2.2633 62.74735,2.5641 29.13246,0.1751 46.34084,-0.079 46.5,-0.6876 0.13896,-0.531 -18.62531,-15.65237 -41.69837,-33.60301 -23.07306,-17.95065 -42.10458,-33.09822 -42.29226,-33.66128 -0.18769,-0.56305 0.24027,-1.19264 0.95102,-1.39908 0.71074,-0.20643 20.64226,-0.14938 44.29226,0.1268 39.38463,0.45991 43.37835,0.35429 47.5,-1.25627 2.475,-0.96712 18.2904,-7.04212 35.14534,-13.5 16.85494,-6.45788 30.64913,-12.1916 30.65375,-12.7416 0.005,-0.55 -16.93578,-11.6076 -37.64534,-24.57246 -20.70956,-12.96485 -37.78741,-24.26587 -37.95076,-25.11337 -0.19719,-1.02304 7.43002,-6.97137 22.69407,-17.69872 12.64509,-8.88678 23.85707,-17.25871 24.9155,-18.60428 1.42617,-1.81308 2.10518,-4.84977 2.6226,-11.72884 0.38401,-5.10528 1.34319,-14.90457 2.13152,-21.7762 0.78832,-6.87163 1.4602,-15.64663 1.49306,-19.5 l 0.0597,-7.00613 39.06301,-30 c 21.48465,-16.5 40.1824,-30.60287 41.55054,-31.33972 1.45347,-0.7828 2.85753,-0.96973 3.37758,-0.44968 0.48952,0.48952 1.56456,5.81739 2.38899,11.83972 4.6974,34.314 6.73054,47.51387 13.46962,87.44968 4.96589,29.42785 4.88362,29.0175 5.79984,28.93096 0.40202,-0.038 10.17384,-10.85584 21.71514,-24.03972 11.5413,-13.18388 21.8913,-24.16593 23,-24.40456 1.1087,-0.23862 17.54081,-2.69413 36.51581,-5.45669 18.975,-2.76255 35.72005,-5.23469 37.21123,-5.49365 1.49117,-0.25896 2.92406,-0.12645 3.1842,0.29446 0.26014,0.42091 -14.36777,17.3326 -32.50647,37.58152 -18.13869,20.24893 -32.81093,37.32731 -32.60496,37.95196 0.37196,1.12809 7.05889,1.96513 40.716,5.09663 9.075,0.84436 23.25,2.18628 31.5,2.98206 8.25,0.79578 15.30737,1.13416 15.68304,0.75195 0.37567,-0.38221 -3.85832,-19.36992 -9.40885,-42.19492 -5.55053,-22.825 -10.01984,-43.075 -9.93178,-45 0.0881,-1.925 1.519,-14.525 3.17988,-28 1.66088,-13.475 4.26984,-34.625 5.79768,-47 l 2.7779,-22.5 2.51707,0.16307 c 2.77319,0.17967 67.18088,23.86129 70.38506,25.8794 1.6103,1.01423 5.40986,1.00128 19.5,-0.0665 9.625,-0.72938 24.7,-1.81913 33.5,-2.42166 26.97357,-1.84686 31.57955,-2.31619 31.28445,-3.1877 -0.15642,-0.462 -21.88442,-16.8741 -48.28442,-36.4713 -26.4,-19.59721 -48.35052,-36.23649 -48.77892,-36.97619 -0.9963,-1.72023 -1.21086,-1.24472 20.15496,-44.66912 l 18.08186,-36.75 30.04249,0 30.04249,0 0.93748,2.25 c 0.51561,1.2375 2.33486,13.725 4.04277,27.75 1.70792,14.025 3.43687,26.13366 3.84213,26.90814 0.40525,0.77448 1.83886,1.57424 3.18578,1.77724 1.34693,0.203 20.22396,3.33904 41.94896,6.96896 37.9786,6.34567 40.2602,6.61128 59.2384,6.89611 10.8561,0.16294 19.9799,-0.0946 20.2751,-0.57227 0.2952,-0.47768 -8.1418,-17.65569 -18.749,-38.17335 l -19.2857,-37.30483 -9.4894,0.24114 c -23.39001,0.59436 -68.16159,2.34096 -74.87274,2.92088 -4.99303,0.43146 -7.25923,0.29746 -7,-0.41391 0.21084,-0.57856 17.70834,-16.42395 38.88334,-35.21198 21.175,-18.78803 39.8977,-35.70717 41.606,-37.59809 1.7083,-1.89092 3.3958,-3.43804 3.75,-3.43804 0.3542,0 0.6496,1.4625 0.6564,3.25 0.019,5.04499 6.8796,67.97531 7.4753,68.57102 0.2909,0.29089 3.1127,0.0278 6.2706,-0.58464 6.4275,-1.24654 40.8499,-9.01756 43.3493,-9.7863 0.9908,-0.30474 2.302,-3.05995 3.4175,-7.18081 4.6824,-17.29837 4.4622,-32.33012 4.4687,304.98073 l 0.0062,316.75004 -541.46862,0 c -432.80258,0 -541.35788,-0.2509 -540.91658,-1.25 z M -803,1054.8196 c 33.05166,-42.099 37.6815,-48.1002 37.10805,-48.1002 -0.74711,0 -62.61394,78.8333 -62.57625,79.7372 0.0175,0.4195 0.58,0.064 1.25,-0.7892 0.67001,-0.8537 11.5682,-14.7352 24.2182,-30.8478 z m 634.80094,-374.70706 c 20.2271,-6.70798 23.73192,-8.1573 23.34127,-9.65216 -0.51117,-1.95607 -42.17775,-70.46544 -44.13741,-72.57198 -1.36033,-1.4623 -1.7282,3.12131 -3.51778,43.83096 -0.51982,11.825 -1.25084,27.313 -1.62448,34.41778 -0.57262,10.88821 -0.45807,12.83535 0.72905,12.39317 0.77463,-0.28852 12.11883,-4.07652 25.20935,-8.41777 z M -788,826.66792 c -7.7,-0.38749 -20.05893,-0.75944 -27.46429,-0.82655 -11.54185,-0.10459 -13.25521,-0.32078 -12,-1.51415 1.58186,-1.50392 69.64795,-44.53404 71.71429,-45.33644 0.97929,-0.38027 1.25,4.84379 1.25,24.12159 l 0,24.60699 -9.75,-0.17345 c -5.3625,-0.0954 -16.05,-0.49049 -23.75,-0.87799 z m 160,-73.65759 c -12.65,-4.1267 -29.075,-9.4415 -36.5,-11.81067 -19.43276,-6.20061 -19.63449,-6.28964 -17.92319,-7.91032 2.42172,-2.29348 68.1665,-43.56998 69.39781,-43.56998 0.76494,0 2.77009,11.50974 5.87969,33.75 2.59538,18.5625 4.70241,34.5375 4.68229,35.5 -0.0201,0.9625 -0.5991,1.70366 -1.2866,1.64703 -0.6875,-0.0566 -11.6,-3.47937 -24.25,-7.60606 z m 237.47366,-122.95672 c -26.53606,-33.31948 -29.85188,-37.87265 -28.73558,-39.45874 27.57443,-39.1788 50.38849,-70.6063 50.98664,-70.23663 0.4264,0.26354 0.77528,15.78218 0.77528,34.48588 0,18.7037 0.39389,34.76464 0.8753,35.69098 0.48142,0.92634 1.62867,8.88426 2.54945,17.68426 0.92077,8.8 2.30527,21.85 3.07666,29 2.49183,23.09664 2.88546,30.5 1.62169,30.5 -0.63357,0 -14.65081,-16.94959 -31.14944,-37.66575 z"
         id="path4325"
         inkscape:connector-curvature="0" />
      <path
         style="fill:#f36e31"
         d="m -877.5,1132.2682 c 0,-0.2482 10.17048,-9.8789 22.60106,-21.4016 20.33371,-18.8487 23.01729,-21.0069 26.75,-21.5135 4.47407,-0.6072 29.00824,-2.0017 64.14894,-3.6464 28.35599,-1.327 32.5,-1.8014 32.5,-3.7201 0,-0.8262 -6.80086,-17.5369 -15.11302,-37.1348 -8.31217,-19.5978 -15.35283,-36.714 -15.64592,-38.0359 l -0.53289,-2.4035 56.39592,0.5291 c 31.01775,0.2909 55.57511,0.2299 54.57191,-0.1356 -1.0032,-0.3656 -1.6782,-1.0815 -1.5,-1.5911 0.1782,-0.5096 -18.55396,-15.61337 -41.62702,-33.56401 -23.07306,-17.95065 -42.10458,-33.09822 -42.29226,-33.66128 -0.18769,-0.56305 0.24027,-1.19264 0.95102,-1.39908 0.71074,-0.20643 20.64226,-0.14938 44.29226,0.1268 39.38463,0.45991 43.37835,0.35429 47.5,-1.25627 2.475,-0.96712 18.45,-7.1033 35.5,-13.63597 17.05,-6.53266 30.84419,-12.26638 30.65375,-12.7416 -0.19044,-0.47521 -17.29044,-11.47163 -38,-24.43649 -20.70956,-12.96485 -37.78741,-24.26587 -37.95076,-25.11337 -0.19719,-1.02304 7.43002,-6.97137 22.69407,-17.69872 12.64509,-8.88678 23.85707,-17.25871 24.9155,-18.60428 1.42617,-1.81308 2.10518,-4.84977 2.6226,-11.72884 0.38401,-5.10528 1.34319,-14.90457 2.13152,-21.7762 0.78832,-6.87163 1.4602,-15.64663 1.49306,-19.5 l 0.0597,-7.00613 39.06301,-30 c 21.48465,-16.5 40.1824,-30.60287 41.55054,-31.33972 1.45347,-0.7828 2.85753,-0.96973 3.37758,-0.44968 0.48952,0.48952 1.56456,5.81739 2.38899,11.83972 4.6974,34.314 6.73054,47.51387 13.46962,87.44968 4.96589,29.42785 4.88362,29.0175 5.79984,28.93096 0.40202,-0.038 10.17384,-10.85584 21.71514,-24.03972 11.5413,-13.18388 21.8913,-24.16593 23,-24.40456 1.1087,-0.23862 17.54081,-2.69413 36.51581,-5.45669 18.975,-2.76255 35.72005,-5.23469 37.21123,-5.49365 1.49117,-0.25896 2.92406,-0.12645 3.1842,0.29446 0.26014,0.42091 -14.36777,17.3326 -32.50647,37.58152 -18.13869,20.24893 -32.81093,37.32731 -32.60496,37.95196 0.37196,1.12809 7.05889,1.96513 40.716,5.09663 9.075,0.84436 23.25,2.18628 31.5,2.98206 8.25,0.79578 15.30737,1.13416 15.68304,0.75195 0.37567,-0.38221 -3.85832,-19.36992 -9.40885,-42.19492 -5.55053,-22.825 -10.01984,-43.075 -9.93178,-45 0.0881,-1.925 1.519,-14.525 3.17988,-28 1.66088,-13.475 4.26984,-34.625 5.79768,-47 l 2.7779,-22.5 2.49261,0.15972 c 2.79282,0.17896 63.07287,22.30829 69.58685,25.54594 4.03085,2.00346 4.7497,2.03547 20.5,0.91297 8.97747,-0.63981 26.22267,-1.83222 38.32267,-2.64979 24.62434,-1.66382 28.5,-2.14125 28.5,-3.51083 0,-0.52325 -10.9125,-9.05136 -24.25,-18.95136 -59.84194,-44.41876 -72.7354,-54.22126 -72.28245,-54.95414 0.26606,-0.4305 3.3072,-1.31927 6.7581,-1.97505 3.45089,-0.65578 15.72435,-3.16633 27.27435,-5.57899 55.79595,-11.65515 69.6503,-14.37803 70.8381,-13.92222 1.91919,0.73646 47.86341,76.28868 47.12179,77.48865 -0.35068,0.56741 -2.98919,-2.92757 -5.86335,-7.76662 -11.59103,-19.51512 -38.94373,-63.89149 -40.22653,-65.26257 -1.18123,-1.26251 -1.37031,-1.05582 -1.37222,1.5 -0.001,1.63036 -0.42806,11.28929 -0.94853,21.46429 -0.52048,10.175 -1.47596,29.525 -2.12329,43 -0.64733,13.475 -1.5422,24.96201 -1.98858,25.52669 -0.6314,0.79871 13.10445,47.84848 14.3255,49.06954 0.15684,0.15683 1.61797,-2.27566 3.24696,-5.40554 1.62899,-3.12988 5.78068,-10.585 9.22598,-16.56694 3.44532,-5.98194 6.2642,-10.99522 6.2642,-11.14064 0,-1.16725 17.00169,-29.4915 18.75,-31.23688 1.38701,-1.38469 2.25,-3.46113 2.25,-5.41374 0,-2.37018 2.08618,-6.08306 8.2877,-14.75 4.5582,-6.37037 9.0529,-12.70749 9.988,-14.08249 0.9352,-1.375 3.5051,-4.975 5.7108,-8 2.2058,-3.025 6.011,-8.425 8.4562,-12 2.4451,-3.575 5.0333,-7.19277 5.7515,-8.03949 2.4362,-2.87217 9.2218,-3.96051 24.6933,-3.96051 14.7691,0 15.1795,0.0574 16.1036,2.25 0.5215,1.2375 4.1376,15.3 8.0358,31.25 3.8982,15.95 7.5118,29.15 8.0303,29.33333 0.5867,0.20743 0.9428,87.55385 0.9428,231.25 l 0,230.91671 -276.98095,0 -276.98095,0 -0.51339,-2.25 c -0.28236,-1.2375 -1.16724,-12.5388 -1.9664,-25.1141 -0.79916,-12.5752 -1.62616,-23.0371 -1.83777,-23.2487 -0.21161,-0.2116 -4.8478,0.2499 -10.30264,1.0256 -5.45485,0.7758 -14.4179,1.9711 -19.9179,2.6564 -5.5,0.6852 -10.37834,1.5758 -10.84075,1.9791 -0.46241,0.4032 4.85305,9.7933 11.81213,20.8669 6.95908,11.0735 12.82408,21.0227 13.03333,22.1092 0.37559,1.9503 -0.41414,1.9756 -61.74113,1.9756 -42.21773,0 -63.26574,-0.3513 -65.69258,-1.0964 -1.96405,-0.6031 -20.78503,-9.6031 -41.82441,-20 -21.03937,-10.397 -38.70187,-18.9036 -39.25,-18.9036 -0.62605,0 -0.99659,6.848 -0.99659,18.4182 0,10.13 -0.27314,19.13 -0.60699,20 -0.52956,1.38 -3.59112,1.5818 -24,1.5818 -12.86615,0 -23.39301,-0.2031 -23.39301,-0.4512 z m 42,-45.8352 c -1.375,-0.6222 -9.40767,-4.4124 -17.85037,-8.4225 -8.44271,-4.0101 -15.47487,-7.2911 -15.62703,-7.2911 -1.42728,0 -30.44023,-14.662 -31.75114,-16.0457 -0.9507,-1.0036 -4.24486,-8.9413 -7.32035,-17.6395 -3.07549,-8.6982 -6.52838,-18.4241 -7.67308,-21.6132 -1.22549,-3.4142 -1.71055,-6.1522 -1.17966,-6.6588 0.83692,-0.7987 10.94885,-2.3833 54.90163,-8.6034 23.62527,-3.3434 29.7678,-4.50239 31.5,-5.9435 3.52202,-2.93017 86.51472,-56.81778 88.17357,-57.25158 1.0234,-0.26763 1.82643,0.0529 1.82643,0.72908 0,0.66369 -4.99192,15.1324 -11.09316,32.15268 -6.10123,17.02029 -10.84036,31.60472 -10.53138,32.40992 0.30897,0.8052 0.063,1.464 -0.5466,1.464 -0.60961,0 -1.60798,0.6183 -2.21862,1.3742 -0.75136,0.93 -60.60415,76.9025 -64.01169,81.2515 -0.71506,0.9127 -4.66008,0.9652 -6.59855,0.088 z m -59.87244,-36.4636 c 1.24387,-1.5861 1.2085,-1.6215 -0.37756,-0.3776 -0.9625,0.7549 -1.75,1.5424 -1.75,1.75 0,0.823 0.82119,0.2933 2.12756,-1.3724 z m 7,-6 c 1.24387,-1.5861 1.2085,-1.6215 -0.37756,-0.3776 -0.9625,0.7549 -1.75,1.5424 -1.75,1.75 0,0.823 0.82119,0.2933 2.12756,-1.3724 z m 6,-5 c 1.24387,-1.5861 1.2085,-1.6215 -0.37756,-0.3776 -0.9625,0.7549 -1.75,1.5424 -1.75,1.75 0,0.823 0.82119,0.2933 2.12756,-1.3724 z m 13,-11 c 1.24387,-1.5861 1.2085,-1.6215 -0.37756,-0.3776 -1.66575,1.3064 -2.19548,2.1276 -1.37244,2.1276 0.20765,0 0.99515,-0.7875 1.75,-1.75 z m 13,-11 c 1.24387,-1.5861 1.2085,-1.6215 -0.37756,-0.3776 -1.66575,1.3064 -2.19548,2.1276 -1.37244,2.1276 0.20765,0 0.99515,-0.7875 1.75,-1.75 z m 13,-11 c 1.24387,-1.5861 1.2085,-1.6215 -0.37756,-0.3776 -0.9625,0.7548 -1.75,1.5424 -1.75,1.75 0,0.823 0.82119,0.2933 2.12756,-1.3724 z m 171.68494,-1.9332 c 0.72187,-0.2888 1.58438,-0.2533 1.91667,0.079 0.33229,0.3323 -0.25834,0.5687 -1.3125,0.5253 -1.16495,-0.048 -1.4019,-0.285 -0.60417,-0.6042 z M -758.25,1003.03 c 0.9625,-0.2515 2.5375,-0.2515 3.5,0 0.9625,0.2516 0.175,0.4574 -1.75,0.4574 -1.925,0 -2.7125,-0.2058 -1.75,-0.4574 z M -788,826.66792 c -7.7,-0.38749 -20.05893,-0.75944 -27.46429,-0.82655 -11.54185,-0.10459 -13.25521,-0.32078 -12,-1.51415 1.58186,-1.50392 69.64795,-44.53404 71.71429,-45.33644 0.97929,-0.38027 1.25,4.84379 1.25,24.12159 l 0,24.60699 -9.75,-0.17345 c -5.3625,-0.0954 -16.05,-0.49049 -23.75,-0.87799 z m 160,-73.65759 c -12.65,-4.1267 -29.075,-9.4415 -36.5,-11.81067 -19.43276,-6.20061 -19.63449,-6.28964 -17.92319,-7.91032 2.42172,-2.29348 68.1665,-43.56998 69.39781,-43.56998 0.76494,0 2.77009,11.50974 5.87969,33.75 2.59538,18.5625 4.70241,34.5375 4.68229,35.5 -0.0201,0.9625 -0.5991,1.70366 -1.2866,1.64703 -0.6875,-0.0566 -11.6,-3.47937 -24.25,-7.60606 z m 237.54581,-122.86614 c -16.45894,-20.66634 -29.72292,-38.10384 -29.4755,-38.75 0.33279,-0.86913 7.27743,-1.09709 26.68853,-0.87607 14.43128,0.16432 26.52579,0.61432 26.8767,1 0.35091,0.38568 1.38622,7.90124 2.30068,16.70124 0.91447,8.8 2.2938,21.85 3.06519,29 2.49183,23.09664 2.88546,30.5 1.62169,30.5 -0.63357,0 -14.61835,-16.90882 -31.07729,-37.57517 z M -65.779,599.46175 c -15.4724,-29.65231 -34.8572,-67.93949 -34.5522,-68.24449 0.6653,-0.66536 45.2568,-10.4979 47.609,-10.4979 1.2609,0 3.4017,0.72675 4.7574,1.61501 l 2.4648,1.61501 0,41.38499 0,41.38499 -8.25,-0.008 -8.25,-0.008 -3.779,-7.24238 z m -159.44033,-36.37013 c -17.15681,-14.68675 -30.95429,-27.09133 -30.66108,-27.56575 0.59211,-0.95806 54.46915,0.079 55.57897,1.06983 1.14349,1.02088 7.36268,49.93995 6.62885,52.14143 -0.1939,0.58171 -14.38994,-10.95877 -31.54674,-25.64551 z"
         id="path4323"
         inkscape:connector-curvature="0" />
      <path
         style="fill:#bf6c43"
         d="m -877.5,1132.2682 c 0,-0.2482 10.17048,-9.8789 22.60106,-21.4016 20.33371,-18.8487 23.01729,-21.0069 26.75,-21.5135 4.47407,-0.6072 29.00824,-2.0017 64.14894,-3.6464 28.35599,-1.327 32.5,-1.8014 32.5,-3.7201 0,-0.8262 -6.80086,-17.5369 -15.11302,-37.1348 -8.31217,-19.5978 -15.35065,-36.7026 -15.64107,-38.0105 l -0.52804,-2.3782 57.39106,0.3303 57.39107,0.3302 17,-5.27078 c 9.35,-2.89894 20.7125,-6.39212 25.25,-7.76264 4.5375,-1.37052 8.23717,-3.02712 8.2215,-3.68133 -0.0157,-0.65422 -10.82458,-12.41279 -24.01978,-26.13016 -13.1952,-13.71736 -23.83484,-25.41736 -23.64364,-26 0.19119,-0.58263 15.76313,-6.98487 34.60431,-14.22719 18.84117,-7.24233 34.54022,-13.45141 34.88677,-13.79797 0.34656,-0.34655 0.19288,-1.32323 -0.34149,-2.17039 -0.53438,-0.84716 -17.84346,-12.09507 -38.46463,-24.99536 -20.62117,-12.90029 -37.59477,-23.77308 -37.71911,-24.16175 -0.12434,-0.38867 9.08143,-7.23167 20.45727,-15.20667 11.37584,-7.975 22.8551,-16.4125 25.50945,-18.75 2.65436,-2.3375 5.19506,-4.25 5.646,-4.25 0.76711,0 10.05738,-4.42323 56.86335,-27.07345 10.3125,-4.9904 22.25193,-10.68462 26.53206,-12.65382 4.28013,-1.9692 7.61788,-4.07365 7.41721,-4.67655 -0.20066,-0.6029 -5.05259,-1.64508 -10.78206,-2.31596 -15.82585,-1.85309 -74.73742,-8.28022 -75.89713,-8.28022 -0.56105,0 -0.99921,-0.5625 -0.9737,-1.25 0.0469,-1.26539 77.08652,-61.00635 79.35699,-61.53802 0.88462,-0.20715 2.43523,8.35679 5.52243,30.5 2.36085,16.93341 5.55667,37.98802 7.10182,46.78802 1.54514,8.8 3.78018,22.075 4.96674,29.5 3.44549,21.5604 3.43112,21.5 5.11476,21.5 0.85023,0 11.16361,-10.9125 22.91863,-24.25 11.75502,-13.3375 21.94908,-24.25 22.65346,-24.25 1.74918,0 1.48863,-1.64312 7.37368,46.5 1.14295,9.35 2.61067,17.54162 3.2616,18.20359 0.70536,0.71733 9.86967,2.0318 22.68351,3.25358 11.825,1.1275 25.55,2.48611 30.5,3.01915 4.95,0.53303 15.19093,1.49697 22.75763,2.14208 l 13.75763,1.17293 14.25332,-13.89567 c 7.83933,-7.64261 26.95637,-26.23945 42.48232,-41.32631 15.52595,-15.08685 28.48884,-28.24935 28.80643,-29.25 0.32108,-1.01163 1.54644,-1.83275 2.76006,-1.84952 1.20043,-0.0166 19.6576,-6.67455 41.01591,-14.79545 l 38.83331,-14.76528 3.73913,-6.95455 c 2.05652,-3.825 5.7888,-10.55455 8.29394,-14.95455 2.50515,-4.4 5.55167,-9.8 6.77005,-12 9.62116,-17.37265 16.81241,-29.34468 18.74229,-31.20225 1.45295,-1.39851 2.28798,-3.37571 2.28798,-5.41751 0,-2.43001 2.02408,-6.04401 8.2877,-14.79775 4.5582,-6.37037 9.0529,-12.70749 9.988,-14.08249 0.9352,-1.375 3.5051,-4.975 5.7108,-8 2.2058,-3.025 6.011,-8.425 8.4562,-12 2.4451,-3.575 5.0333,-7.19277 5.7515,-8.03949 2.4362,-2.87217 9.2218,-3.96051 24.6933,-3.96051 14.7691,0 15.1795,0.0574 16.1036,2.25 0.5215,1.2375 4.1376,15.3 8.0358,31.25 3.8982,15.95 7.5118,29.15 8.0303,29.33333 0.5867,0.20743 0.9428,87.55385 0.9428,231.25 l 0,230.91671 -276.98095,0 -276.98095,0 -0.51339,-2.25 c -0.28236,-1.2375 -1.16724,-12.5388 -1.9664,-25.1141 -0.79916,-12.5752 -1.62616,-23.0371 -1.83777,-23.2487 -0.21161,-0.2116 -4.8478,0.2499 -10.30264,1.0256 -5.45485,0.7758 -14.4179,1.9711 -19.9179,2.6564 -5.5,0.6852 -10.37834,1.5758 -10.84075,1.9791 -0.46241,0.4032 4.85305,9.7933 11.81213,20.8669 6.95908,11.0735 12.82408,21.0227 13.03333,22.1092 0.37099,1.9264 -0.26486,1.9756 -25.56213,1.9756 -20.92897,0 -25.94258,-0.2573 -25.94258,-1.331 0,-0.732 4.5,-10.5055 10,-21.7189 5.5,-11.2133 10,-20.9644 10,-21.669 0,-0.9258 -2.14981,-1.2991 -7.75,-1.3457 -4.2625,-0.035 -10,-0.2305 -12.75,-0.4333 -2.75,-0.2028 -16.475,-0.6212 -30.5,-0.9298 l -25.5,-0.5611 6.01977,5.7444 c 3.31087,3.1594 14.11087,13.0934 24,22.0756 9.88913,8.9822 18.59762,17.1947 19.3522,18.25 1.34477,1.8807 0.71177,1.9188 -31.929,1.9188 -21.31463,0 -34.58632,-0.3947 -36.87197,-1.0964 -1.96405,-0.6031 -20.78503,-9.6031 -41.82441,-20 -21.03937,-10.397 -38.70187,-18.9036 -39.25,-18.9036 -0.62605,0 -0.99659,6.848 -0.99659,18.4182 0,10.13 -0.27314,19.13 -0.60699,20 -0.52956,1.38 -3.59112,1.5818 -24,1.5818 -12.86615,0 -23.39301,-0.2031 -23.39301,-0.4512 z m 444.47137,-134.29887 c 1.63425,-2.06248 16.70925,-19.73233 33.5,-39.26632 16.79074,-19.534 34.27993,-39.8965 38.86486,-45.25 4.58493,-5.35351 7.73493,-9.73359 7,-9.73353 -0.73493,7e-5 -8.53623,0.92334 -17.33623,2.05171 -8.8,1.12838 -19.375,2.45594 -23.5,2.95015 -4.125,0.49421 -18.4983,2.29819 -31.94066,4.00884 -13.44237,1.71066 -25.43492,2.86075 -26.65012,2.55575 -1.68692,-0.42339 -4.51119,-5.10859 -11.94195,-19.81055 -16.06571,-31.78648 -30.70811,-60.20526 -31.45639,-61.0523 -0.77375,-0.87586 -75.34826,71.48577 -75.77698,73.52843 -0.25996,1.23855 61.73485,68.6568 65.66516,71.4097 1.96504,1.37637 66.20798,22.07169 69.10094,22.26029 0.825,0.054 2.83711,-1.5897 4.47137,-3.65217 z M -190.66667,853.82817 C -190.85,853.33801 -206.75,835.96358 -226,815.21831 c -39.9228,-43.02385 -36.41782,-41.13893 -34.53405,-18.5718 0.62314,7.46507 1.77569,22.07531 2.56121,32.46721 0.78553,10.3919 1.65461,19.12074 1.9313,19.39743 0.27669,0.27669 6.69923,1.10679 14.27231,1.84466 7.57308,0.73787 19.84423,1.9667 27.26923,2.73074 16.38075,1.68559 24.27833,1.93134 23.83333,0.74162 z M -835.5,1086.4428 c -1.375,-0.6276 -9.40767,-4.4222 -17.85037,-8.4323 -8.44271,-4.0101 -15.47585,-7.2911 -15.6292,-7.2911 -1.19674,0 -31.52043,-15.1521 -31.52043,-15.7501 0,-0.7969 65.44839,-56.48965 67.08244,-57.08327 0.53755,-0.19528 0.91846,8.08787 0.91973,19.99997 10e-4,11.1834 0.29824,31.4709 0.66012,45.0834 0.39077,14.6993 0.28837,24.7225 -0.25217,24.6823 -0.50056,-0.037 -2.03512,-0.5812 -3.41012,-1.2089 z m 66,-84.3418 c -0.825,-0.2125 -13.7957,-1.9185 -28.82378,-3.79112 -24.90265,-3.10305 -29.33934,-3.88406 -28.09289,-4.94526 2.87676,-2.44922 82.25798,-53.68392 82.8245,-53.45708 0.60512,0.24228 -9.58202,29.67329 -20.78957,60.06182 -0.97212,2.63584 -1.80845,2.98414 -5.11826,2.13164 z m 500.0221,-258.13164 c -8.63534,-32.46411 -12.00454,-45.60931 -11.74305,-45.81648 0.12152,-0.0963 7.42095,-0.68729 16.22095,-1.31335 45.84684,-3.26169 63.62867,-4.32484 64.11989,-3.83361 0.29897,0.29896 -10.40994,13.74429 -23.79757,29.87851 -13.38763,16.13421 -27.20994,32.82243 -30.71625,37.08493 -3.50631,4.2625 -6.68819,7.75 -7.07083,7.75 -0.38265,0 -3.53856,-10.6875 -7.01314,-23.75 z m -98.39948,18.94841 c -0.27976,-0.45267 0.13927,-5.745 0.93119,-11.76073 1.27071,-9.65287 7.41523,-59.91736 9.07868,-74.26709 0.35055,-3.02395 1.19376,-5.55042 1.94923,-5.84032 1.34272,-0.51525 66.3749,23.18631 69.11407,25.18923 1.18687,0.86787 -6.17457,7.29976 -37.80255,33.02912 -44.84773,36.48361 -42.59967,34.7354 -43.27062,33.64979 z M -65.779,599.46175 c -15.4724,-29.65231 -34.8572,-67.93949 -34.5522,-68.24449 0.6653,-0.66536 45.2568,-10.4979 47.609,-10.4979 1.2609,0 3.4017,0.72675 4.7574,1.61501 l 2.4648,1.61501 0,41.38499 0,41.38499 -8.25,-0.008 -8.25,-0.008 -3.779,-7.24238 z m -159.44033,-36.37013 c -17.15681,-14.68675 -30.95429,-27.09133 -30.66108,-27.56575 0.59211,-0.95806 54.46915,0.079 55.57897,1.06983 1.14349,1.02088 7.36268,49.93995 6.62885,52.14143 -0.1939,0.58171 -14.38994,-10.95877 -31.54674,-25.64551 z"
         id="path4321"
         inkscape:connector-curvature="0" />
      <path
         style="fill:#f24f28"
         d="m -877,1131.7194 c 0.33992,-0.55 1.08258,-1 1.65035,-1 0.56777,0 9.87872,-8.2154 20.69098,-18.2563 10.81227,-10.041 20.44617,-18.8711 21.40867,-19.6225 1.65426,-1.2914 1.75,-0.2379 1.75,19.2563 l 0,20.6225 -23.05902,0 c -15.11803,0 -22.84618,-0.3444 -22.44098,-1 z m 92.3025,-20.3615 c -22.93362,-11.5923 -41.57044,-21.2039 -41.41514,-21.3592 0.44995,-0.45 28.12754,-2.1595 52.61264,-3.2496 35.80181,-1.5941 42.10191,-2.1317 42.68173,-3.6427 0.48358,-1.2602 -2.02415,-7.4669 -23.29909,-57.6663 -4.61045,-10.8786 -8.38264,-20.0374 -8.38264,-20.3529 0,-0.3154 25.7625,-0.4147 57.25,-0.2207 l 57.25,0.3529 17,-5.31871 c 9.35,-2.92526 20.7125,-6.43999 25.25,-7.81051 4.5375,-1.37052 8.23717,-3.02712 8.2215,-3.68133 -0.0157,-0.65422 -10.82458,-12.41279 -24.01978,-26.13016 -13.1952,-13.71736 -23.83484,-25.41736 -23.64364,-26 0.19119,-0.58263 15.76313,-6.98487 34.60431,-14.22719 18.84117,-7.24233 34.54022,-13.45141 34.88677,-13.79797 0.34656,-0.34655 0.19288,-1.32323 -0.34149,-2.17039 -0.53438,-0.84716 -17.84346,-12.09507 -38.46463,-24.99536 -20.62117,-12.90029 -37.59477,-23.77308 -37.71911,-24.16175 -0.12434,-0.38867 9.08143,-7.23167 20.45727,-15.20667 11.37584,-7.975 22.8551,-16.4125 25.50945,-18.75 2.65436,-2.3375 5.19506,-4.25 5.646,-4.25 0.76711,0 10.05738,-4.42323 56.86335,-27.07345 10.3125,-4.9904 22.25193,-10.68462 26.53206,-12.65382 4.28013,-1.9692 7.61788,-4.07365 7.41721,-4.67655 -0.20066,-0.6029 -5.05259,-1.64508 -10.78206,-2.31596 -15.82585,-1.85309 -74.73742,-8.28022 -75.89713,-8.28022 -0.56105,0 -0.99921,-0.5625 -0.9737,-1.25 0.0469,-1.26539 77.08652,-61.00635 79.35699,-61.53802 0.88462,-0.20715 2.43523,8.35679 5.52243,30.5 2.36085,16.93341 5.55667,37.98802 7.10182,46.78802 1.54514,8.8 3.78018,22.075 4.96674,29.5 3.44549,21.5604 3.43112,21.5 5.11476,21.5 0.85023,0 11.16361,-10.9125 22.91863,-24.25 11.75502,-13.3375 21.94908,-24.25 22.65346,-24.25 1.74918,0 1.48863,-1.64312 7.37368,46.5 1.14295,9.35 2.61067,17.54162 3.2616,18.20359 0.70536,0.71733 9.86967,2.0318 22.68351,3.25358 11.825,1.1275 25.55,2.48611 30.5,3.01915 4.95,0.53303 15.19093,1.49697 22.75763,2.14208 l 13.75763,1.17293 14.25332,-13.89567 c 7.83933,-7.64261 26.95637,-26.23945 42.48232,-41.32631 15.52595,-15.08685 28.47079,-28.19246 28.76631,-29.12358 0.30081,-0.94777 1.95584,-1.93076 3.76005,-2.23325 1.77251,-0.29717 20.67553,-7.17553 42.00672,-15.28525 l 38.78399,-14.74493 13.60986,-24.09117 c 7.48543,-13.25014 16.02014,-28.22866 18.96602,-33.28559 2.94588,-5.05692 5.35615,-9.70755 5.35615,-10.33473 0,-0.62718 9.4993,-14.60219 21.1095,-31.05558 l 21.1094,-29.91527 17.3906,0 c 9.5648,0 17.4074,0.1125 17.428,0.25 0.021,0.1375 3.3268,13.44888 7.347,29.58084 4.7814,19.18663 7.9676,30.08106 9.2125,31.5 1.8572,2.11698 1.9093,7.69583 2.1635,231.91916 l 0.2606,229.75004 -277.01055,0 c -263.15138,0 -277.01075,-0.087 -277.01456,-1.75 -0.013,-5.6765 -3.10094,-48.6883 -3.52599,-49.1134 -0.2822,-0.2822 -4.4409,0.014 -9.24155,0.6582 -4.80065,0.6443 -14.46595,1.9366 -21.47845,2.872 -7.0125,0.9353 -12.75,2.122 -12.75,2.6371 0,0.5152 5.78357,10.22 12.85237,21.5663 7.06881,11.3464 13.17037,21.1923 13.55902,21.8798 0.55746,0.9861 -4.79495,1.25 -25.35237,1.25 -21.0259,0 -26.05902,-0.2571 -26.05902,-1.331 0,-0.732 4.5,-10.5055 10,-21.7189 5.5,-11.2133 10,-20.9644 10,-21.669 0,-0.9258 -2.14981,-1.2991 -7.75,-1.3457 -4.2625,-0.035 -10,-0.2305 -12.75,-0.4333 -2.75,-0.2028 -16.475,-0.6212 -30.5,-0.9298 l -25.5,-0.5611 6.01977,5.7444 c 3.31087,3.1594 14.11087,13.0934 24,22.0756 9.88913,8.9822 18.59762,17.1947 19.3522,18.25 1.34524,1.8814 0.73137,1.916 -31.5,1.7765 L -743,1132.4349 l -41.6975,-21.077 z m 133.95938,-64.3885 c 0.14404,-21.0375 0.002,-38.25 -0.31593,-38.25 -0.9681,0 -76.50281,73.2764 -76.0261,73.7531 0.73159,0.7316 9.62185,1.1588 38.58015,1.8536 15.125,0.3629 27.70825,0.8456 27.96277,1.0727 0.25452,0.227 2.50452,0.2795 5,0.1167 l 4.53723,-0.2961 0.26188,-38.25 z m 217.70949,-49.00007 c 1.63425,-2.06248 16.70925,-19.73233 33.5,-39.26632 16.79074,-19.534 34.27993,-39.8965 38.86486,-45.25 4.58493,-5.35351 7.73493,-9.73359 7,-9.73353 -0.73493,7e-5 -8.53623,0.92334 -17.33623,2.05171 -8.8,1.12838 -19.375,2.45594 -23.5,2.95015 -4.125,0.49421 -18.4983,2.29819 -31.94066,4.00884 -13.44237,1.71066 -25.43492,2.86075 -26.65012,2.55575 -1.68692,-0.42339 -4.51119,-5.10859 -11.94195,-19.81055 -16.06571,-31.78648 -30.70811,-60.20526 -31.45639,-61.0523 -0.77375,-0.87586 -75.34826,71.48577 -75.77698,73.52843 -0.25996,1.23855 61.73485,68.6568 65.66516,71.4097 1.96504,1.37637 66.20798,22.07169 69.10094,22.26029 0.825,0.054 2.83711,-1.5897 4.47137,-3.65217 z M -190.66667,853.82817 C -190.85,853.33801 -206.75,835.96358 -226,815.21831 c -39.9228,-43.02385 -36.41782,-41.13893 -34.53405,-18.5718 0.62314,7.46507 1.77569,22.07531 2.56121,32.46721 0.78553,10.3919 1.65461,19.12074 1.9313,19.39743 0.27669,0.27669 6.69923,1.10679 14.27231,1.84466 7.57308,0.73787 19.84423,1.9667 27.26923,2.73074 16.38075,1.68559 24.27833,1.93134 23.83333,0.74162 z m -674.76627,217.33203 c -17.83811,-8.4737 -32.91311,-15.8947 -33.5,-16.4911 -0.758,-0.7703 -0.61637,-1.4269 0.48897,-2.2671 0.85582,-0.6504 15.62861,-13.1076 32.82843,-27.6826 17.19982,-14.575 31.6871,-26.65004 32.19397,-26.83337 0.54289,-0.19637 0.92157,8.05787 0.92157,20.08807 0,11.2318 0.29698,31.2943 0.65995,44.5833 0.39183,14.3457 0.29026,24.131 -0.25,24.0857 -0.50047,-0.042 -15.50477,-7.0092 -33.34289,-15.4829 z M -769.5,1002.101 c -0.825,-0.2125 -13.7957,-1.9185 -28.82378,-3.79112 -24.90265,-3.10305 -29.33934,-3.88406 -28.09289,-4.94526 2.87676,-2.44922 82.25798,-53.68392 82.8245,-53.45708 0.60512,0.24228 -9.58202,29.67329 -20.78957,60.06182 -0.97212,2.63584 -1.80845,2.98414 -5.11826,2.13164 z m 500.0221,-258.13164 c -8.63534,-32.46411 -12.00454,-45.60931 -11.74305,-45.81648 0.12152,-0.0963 7.42095,-0.68729 16.22095,-1.31335 45.84684,-3.26169 63.62867,-4.32484 64.11989,-3.83361 0.29897,0.29896 -10.40994,13.74429 -23.79757,29.87851 -13.38763,16.13421 -27.20994,32.82243 -30.71625,37.08493 -3.50631,4.2625 -6.68819,7.75 -7.07083,7.75 -0.38265,0 -3.53856,-10.6875 -7.01314,-23.75 z m -98.39948,18.94841 c -0.27976,-0.45267 0.13927,-5.745 0.93119,-11.76073 1.27071,-9.65287 7.41523,-59.91736 9.07868,-74.26709 0.35055,-3.02395 1.19376,-5.55042 1.94923,-5.84032 1.34272,-0.51525 66.3749,23.18631 69.11407,25.18923 1.18687,0.86787 -6.17457,7.29976 -37.80255,33.02912 -44.84773,36.48361 -42.59967,34.7354 -43.27062,33.64979 z"
         id="path4319"
         inkscape:connector-curvature="0" />
      <path
         style="fill:#be623a"
         d="m -877,1131.7194 c 0.33992,-0.55 1.08258,-1 1.65035,-1 0.56777,0 9.87872,-8.2154 20.69098,-18.2563 10.81227,-10.041 20.44617,-18.8711 21.40867,-19.6225 1.65426,-1.2914 1.75,-0.2379 1.75,19.2563 l 0,20.6225 -23.05902,0 c -15.11803,0 -22.84618,-0.3444 -22.44098,-1 z m 92.3025,-20.3615 c -22.93362,-11.5923 -41.57044,-21.2039 -41.41514,-21.3592 0.44995,-0.45 28.12754,-2.1595 52.61264,-3.2496 35.80181,-1.5941 42.10191,-2.1317 42.68173,-3.6427 0.48358,-1.2602 -2.02415,-7.4669 -23.29909,-57.6663 -4.61045,-10.8786 -8.38264,-20.0411 -8.38264,-20.3612 0,-0.32 25.7625,-0.2856 57.25,0.076 l 57.25,0.6583 0.87343,2.5732 c 0.48039,1.4152 6.50317,11.6315 13.38396,22.7029 6.88079,11.0713 16.16151,26.0922 20.62383,33.3797 7.42802,12.1308 10.61878,15.6659 10.61878,11.7647 0,-0.8169 0.6374,-8.5794 1.41644,-17.25 0.77905,-8.6706 2.16355,-25.6647 3.07666,-37.7647 0.91312,-12.1 2.01634,-24.41438 2.4516,-27.36525 0.79087,-5.36179 0.78848,-5.36846 -3.75499,-10.5 -2.50049,-2.82413 -13.35361,-14.26209 -24.11803,-25.41768 -10.76442,-11.1556 -19.6957,-20.64015 -19.84728,-21.07679 -0.2258,-0.65047 28.73338,-12.13565 61.88654,-24.54412 9.90768,-3.70823 10.57281,-2.30329 6.34567,13.4038 -3.39804,12.62633 -5.56446,20.8503 -10.01024,38 -0.92676,3.575 -2.27464,8.525 -2.99528,11 -0.72065,2.475 -1.57892,5.85419 -1.90727,7.50932 l -0.59701,3.00932 4.7766,-0.26633 c 5.49286,-0.30626 29.5796,-2.65581 49.27659,-4.8067 15.39168,-1.68075 24.87347,-1.85817 28.20295,-0.52771 1.26338,0.50485 18.6704,5.99694 38.68227,12.20465 l 36.38523,11.28679 42.61477,23.6757 c 23.43813,13.0217 42.97371,23.3482 43.41241,22.9478 0.4387,-0.4005 3.31235,-15.6853 6.38589,-33.9664 l 5.58826,-33.23834 -3.18692,-19.66405 c -4.08463,-25.20314 -6.84659,-42.71338 -8.22806,-52.16405 -1.49906,-10.25515 -1.51879,-10.30139 -4.11612,-9.6514 -4.74505,1.18747 -98.38894,12.71729 -101.05258,12.44201 -2.63289,-0.27211 -4.11363,-2.84746 -23.25937,-40.45343 l -20.44746,-40.16282 22.10033,-25.08718 c 19.18946,-21.78292 23.9184,-26.65777 23.9184,-24.65643 0,0.23691 0.8908,7.54941 1.97955,16.25 1.08875,8.70059 2.70736,21.89425 3.59692,29.31925 0.88955,7.425 1.99369,14.46768 2.45363,15.65039 0.48205,1.23957 2.42139,2.67354 4.57864,3.3855 4.44042,1.46547 86.41109,49.40285 87.9563,51.43785 1.16014,1.52786 -1.75339,3.05523 59.68089,-31.28669 16.91026,-9.45288 31.40723,-17.18705 32.21548,-17.18705 0.80825,0 12.76633,10.9125 26.57352,24.25 13.80718,13.3375 25.69009,24.3844 26.40647,24.54866 0.71637,0.16427 2.00487,-1.41073 2.86332,-3.5 15.05215,-36.63327 15.83059,-38.80086 14.63272,-40.74469 -0.65958,-1.07031 -17.90283,-19.91343 -38.31833,-41.8736 -20.41551,-21.96016 -37.24399,-40.43992 -37.39663,-41.06612 -0.15594,-0.63975 5.75841,-3.40559 13.5,-6.31326 48.84527,-18.34582 66.30036,-25.24756 68.06087,-26.91125 1.09984,-1.03936 9.75757,-15.61474 19.23939,-32.38974 9.48183,-16.775 17.85564,-31.38763 18.60847,-32.47251 0.75284,-1.08487 1.36879,-2.58551 1.36879,-3.33473 0,-0.74923 9.4993,-14.8241 21.1095,-31.27749 l 21.1094,-29.91527 17.3906,0 c 9.5648,0 17.4074,0.1125 17.428,0.25 0.021,0.1375 3.3268,13.44888 7.347,29.58084 4.7814,19.18663 7.9676,30.08106 9.2125,31.5 1.8572,2.11698 1.9093,7.69583 2.1635,231.91916 l 0.2606,229.75004 -277.01055,0 c -263.15138,0 -277.01075,-0.087 -277.01456,-1.75 -0.013,-5.6765 -3.10094,-48.6883 -3.52599,-49.1134 -0.2822,-0.2822 -4.4409,0.014 -9.24155,0.6582 -4.80065,0.6443 -14.46595,1.9366 -21.47845,2.872 -7.0125,0.9353 -12.75,2.122 -12.75,2.6371 0,0.5152 5.78357,10.22 12.85237,21.5663 7.06881,11.3464 13.17037,21.1923 13.55902,21.8798 0.55746,0.9861 -4.79495,1.25 -25.35237,1.25 -21.0259,0 -26.05902,-0.2571 -26.05902,-1.331 0,-0.732 4.5,-10.5055 10,-21.7189 5.5,-11.2133 10,-20.9644 10,-21.669 0,-0.9258 -2.14981,-1.2991 -7.75,-1.3457 -4.2625,-0.035 -10,-0.2305 -12.75,-0.4333 -2.75,-0.2028 -16.47344,-0.6438 -30.49653,-0.9801 l -25.49652,-0.6113 3.73689,3.7946 c 2.05529,2.0871 13.15164,12.3447 24.65855,22.7947 11.50692,10.45 21.17213,19.5625 21.47825,20.25 0.43969,0.9874 -6.3155,1.2201 -32.16202,1.1077 L -743,1132.4349 l -41.6975,-21.077 z m 133.95938,-64.3885 c 0.14404,-21.0375 0.002,-38.25 -0.31593,-38.25 -0.9681,0 -76.50281,73.2764 -76.0261,73.7531 0.73159,0.7316 9.62185,1.1588 38.58015,1.8536 15.125,0.3629 27.70825,0.8456 27.96277,1.0727 0.25452,0.227 2.50452,0.2795 5,0.1167 l 4.53723,-0.2961 0.26188,-38.25 z m -214.69482,24.1908 c -17.83811,-8.4737 -32.91311,-15.8947 -33.5,-16.4911 -0.758,-0.7703 -0.61637,-1.4269 0.48897,-2.2671 0.85582,-0.6504 15.62861,-13.1076 32.82843,-27.6826 17.19982,-14.575 31.6871,-26.65004 32.19397,-26.83337 0.54289,-0.19637 0.92157,8.05787 0.92157,20.08807 0,11.2318 0.29698,31.2943 0.65995,44.5833 0.39183,14.3457 0.29026,24.131 -0.25,24.0857 -0.50047,-0.042 -15.50477,-7.0092 -33.34289,-15.4829 z M -769.5,1002.101 c -0.825,-0.2125 -13.7957,-1.9185 -28.82378,-3.79112 -24.90265,-3.10305 -29.33934,-3.88406 -28.09289,-4.94526 2.87676,-2.44922 82.25798,-53.68392 82.8245,-53.45708 0.60512,0.24228 -9.58202,29.67329 -20.78957,60.06182 -0.97212,2.63584 -1.80845,2.98414 -5.11826,2.13164 z m 195.25631,-97.5948 c -0.57735,-0.70776 -5.19686,-12.08684 -10.26559,-25.28684 -5.06872,-13.2 -11.86521,-30.89131 -15.10329,-39.31402 -3.23809,-8.42271 -5.88743,-15.52134 -5.88743,-15.77475 0,-1.61483 5.88416,-2.21904 13.6976,-1.40653 4.84132,0.50344 19.8274,1.85314 33.3024,2.99932 13.475,1.14619 31.67182,2.73918 40.43738,3.53998 8.76556,0.8008 16.75306,1.456 17.75,1.456 0.99694,0 1.81262,0.47526 1.81262,1.05614 0,0.58087 -12.26366,13.06837 -27.25257,27.75 -47.87637,46.89484 -47.33746,46.39495 -48.49112,44.9807 z m 206.36631,-141.58843 c -0.27976,-0.45267 0.13927,-5.745 0.93119,-11.76073 1.27071,-9.65287 7.41523,-59.91736 9.07868,-74.26709 0.35055,-3.02395 1.19376,-5.55042 1.94923,-5.84032 1.34272,-0.51525 66.3749,23.18631 69.11407,25.18923 1.18687,0.86787 -6.17457,7.29976 -37.80255,33.02912 -44.84773,36.48361 -42.59967,34.7354 -43.27062,33.64979 z"
         id="path4317"
         inkscape:connector-curvature="0" />
      <path
         style="fill:#cd5231"
         d="m -726.87758,1130.9694 c -0.2818,-0.9625 -1.21964,-10.075 -2.08408,-20.25 -0.86445,-10.175 -1.72901,-19.85 -1.92123,-21.5 -0.62007,-5.3224 -0.24901,-5.5154 10.21622,-5.3137 l 9.66667,0.1863 -8.4788,0.5637 -8.47879,0.5637 24.62929,22.5 c 13.54611,12.375 24.88495,23.0625 25.19741,23.75 0.44603,0.9813 -4.6758,1.25 -23.83311,1.25 -22.37741,0 -24.44372,-0.1452 -24.91358,-1.75 z m 55.37758,0.419 c 0,-0.732 4.5,-10.5055 10,-21.7189 5.5,-11.2133 10,-20.9462 10,-21.6286 0,-0.8601 -2.53069,-1.344 -8.25,-1.5775 l -8.25,-0.3369 9.27206,-0.2036 9.27206,-0.2035 -0.27206,-40.5004 c -0.26115,-38.8758 0.11336,-44.3434 2.53887,-37.0668 0.51477,1.5443 6.56567,11.8661 13.44646,22.9375 6.88079,11.0713 16.16151,26.0922 20.62383,33.3797 7.42802,12.1308 10.61878,15.6659 10.61878,11.7647 0,-0.8169 0.6374,-8.5794 1.41644,-17.25 0.77905,-8.6706 2.16355,-25.6647 3.07666,-37.7647 0.91312,-12.1 2.01634,-24.41438 2.4516,-27.36525 0.79087,-5.36179 0.78848,-5.36846 -3.75499,-10.5 -2.50049,-2.82413 -13.35361,-14.26209 -24.11803,-25.41768 -10.76442,-11.1556 -19.6957,-20.64015 -19.84728,-21.07679 -0.2258,-0.65047 28.73338,-12.13565 61.88654,-24.54412 9.90768,-3.70823 10.57281,-2.30329 6.34567,13.4038 -3.39804,12.62633 -5.56446,20.8503 -10.01024,38 -0.92676,3.575 -2.27464,8.525 -2.99528,11 -0.72065,2.475 -1.57892,5.85419 -1.90727,7.50932 l -0.59701,3.00932 4.7766,-0.26633 c 5.49286,-0.30626 29.5796,-2.65581 49.27659,-4.8067 15.39168,-1.68075 24.87347,-1.85817 28.20295,-0.52771 1.26338,0.50485 18.6704,5.99694 38.68227,12.20465 l 36.38523,11.28679 42.61477,23.6757 c 23.43813,13.0217 42.97371,23.3482 43.41241,22.9478 0.4387,-0.4005 3.31235,-15.6853 6.38589,-33.9664 l 5.58826,-33.23834 -3.18692,-19.66405 c -4.08463,-25.20314 -6.84659,-42.71338 -8.22806,-52.16405 -1.49906,-10.25515 -1.51879,-10.30139 -4.11612,-9.6514 -4.74505,1.18747 -98.38894,12.71729 -101.05258,12.44201 -2.63289,-0.27211 -4.11363,-2.84746 -23.25937,-40.45343 l -20.44746,-40.16282 22.10033,-25.08718 c 19.18946,-21.78292 23.9184,-26.65777 23.9184,-24.65643 0,0.23691 0.8908,7.54941 1.97955,16.25 1.08875,8.70059 2.70736,21.89425 3.59692,29.31925 0.88955,7.425 1.99369,14.46768 2.45363,15.65039 0.48205,1.23957 2.42139,2.67354 4.57864,3.3855 4.44042,1.46547 86.41109,49.40285 87.9563,51.43785 1.16014,1.52786 -1.75339,3.05523 59.68089,-31.28669 16.91026,-9.45288 31.40723,-17.18705 32.21548,-17.18705 0.80825,0 12.76633,10.9125 26.57352,24.25 13.80718,13.3375 25.69009,24.3844 26.40647,24.54866 0.71637,0.16427 2.00487,-1.41073 2.86332,-3.5 15.05215,-36.63327 15.83059,-38.80086 14.63272,-40.74469 -0.65958,-1.07031 -17.90283,-19.91343 -38.31833,-41.8736 -20.41551,-21.96016 -37.24399,-40.43992 -37.39663,-41.06612 -0.15594,-0.63975 5.75841,-3.40559 13.5,-6.31326 47.28409,-17.75945 66.81461,-25.41225 67.10916,-26.29591 0.18426,-0.55279 0.90507,-1.00508 1.6018,-1.00508 0.69672,0 9.28434,-14.19487 19.08359,-31.54415 9.79926,-17.34928 18.20114,-31.78167 18.67085,-32.07197 1.12271,-0.69387 1.68073,0.70346 16.72672,41.88522 17.6392,48.27925 17.6067,48.19726 19.1852,48.4953 0.8805,0.16627 8.2663,-10.9298 19.9002,-29.89736 10.175,-16.58897 22.3957,-36.50795 27.1572,-44.2644 4.7614,-7.75645 9.4864,-15.10422 10.5,-16.32838 l 1.8428,-2.22573 0.6924,3.72573 c 0.3808,2.04916 0.7183,105.53824 0.75,229.97574 l 0.0576,226.25004 -223.05902,0 c -170.05157,0 -222.88719,-0.2781 -222.33595,-1.17 0.52282,-0.8459 0.19299,-0.9151 -1.19099,-0.25 -1.06706,0.5129 -25.25625,1.0419 -54.66404,1.1956 l -52.75,0.2756 0.013,-6.2756 c 0.0228,-10.9852 -2.35852,-44.2536 -3.20956,-44.8395 -0.45046,-0.3101 -5.20301,0.01 -10.56124,0.7081 -26.59277,3.4716 -33.81095,4.5824 -34.57732,5.3211 -0.91846,0.8852 1.14127,5.3582 5.31155,11.5347 1.48541,2.2 3.82041,5.8 5.18889,8 1.36849,2.2 3.62357,5.8 5.01129,8 1.38772,2.2 3.92389,6.25 5.63594,9 1.71204,2.75 3.88333,5.7875 4.82508,6.75 1.62979,1.6656 0.47529,1.75 -23.96268,1.75 -20.70619,0 -25.67495,-0.2576 -25.67495,-1.331 z m 0.8125,-45.3522 c 0.72187,-0.2888 1.58438,-0.2533 1.91667,0.079 0.33229,0.3323 -0.25834,0.5687 -1.3125,0.5253 -1.16495,-0.048 -1.4019,-0.285 -0.60417,-0.6042 z m -31.52091,-1.0593 c 3.73537,-0.193 9.58537,-0.1915 13,0 3.41462,0.1946 0.35841,0.3525 -6.79159,0.3507 -7.15,0 -9.94379,-0.161 -6.20841,-0.3539 z m -130.1337,-2.2575 c 0,-1.375 0.22698,-1.9375 0.50439,-1.25 0.27741,0.6875 0.27741,1.8125 0,2.5 -0.27741,0.6875 -0.50439,0.125 -0.50439,-1.25 z m 0.21207,-18 c 0,-5.775 0.16528,-8.1375 0.36728,-5.25 0.202,2.8875 0.202,7.6125 0,10.5 -0.202,2.8875 -0.36728,0.525 -0.36728,-5.25 z M -769.5,1002.101 c -0.825,-0.2125 -13.7957,-1.9185 -28.82378,-3.79112 -24.90265,-3.10305 -29.33934,-3.88406 -28.09289,-4.94526 2.87676,-2.44922 82.25798,-53.68392 82.8245,-53.45708 0.60512,0.24228 -9.58202,29.67329 -20.78957,60.06182 -0.97212,2.63584 -1.80845,2.98414 -5.11826,2.13164 z m 195.25631,-97.5948 c -0.57735,-0.70776 -5.19686,-12.08684 -10.26559,-25.28684 -5.06872,-13.2 -11.86521,-30.89131 -15.10329,-39.31402 -3.23809,-8.42271 -5.88743,-15.52134 -5.88743,-15.77475 0,-1.61483 5.88416,-2.21904 13.6976,-1.40653 4.84132,0.50344 19.8274,1.85314 33.3024,2.99932 13.475,1.14619 31.67182,2.73918 40.43738,3.53998 8.76556,0.8008 16.75306,1.456 17.75,1.456 0.99694,0 1.81262,0.47526 1.81262,1.05614 0,0.58087 -12.26366,13.06837 -27.25257,27.75 -47.87637,46.89484 -47.33746,46.39495 -48.49112,44.9807 z m 206.36631,-141.58843 c -0.27976,-0.45267 0.13927,-5.745 0.93119,-11.76073 1.27071,-9.65287 7.41523,-59.91736 9.07868,-74.26709 0.35055,-3.02395 1.19376,-5.55042 1.94923,-5.84032 1.34272,-0.51525 66.3749,23.18631 69.11407,25.18923 1.18687,0.86787 -6.17457,7.29976 -37.80255,33.02912 -44.84773,36.48361 -42.59967,34.7354 -43.27062,33.64979 z"
         id="path4315"
         inkscape:connector-curvature="0" />
      <path
         style="fill:#e83422"
         d="m -491.28755,1131.9694 c 0.11685,-0.4125 -0.27938,-1.65 -0.8805,-2.75 -0.60113,-1.1 -1.59016,-4.25 -2.19785,-7 -0.6077,-2.75 -2.46147,-10.1621 -4.1195,-16.4713 -1.65803,-6.3091 -3.0146,-12.9243 -3.0146,-14.7003 0,-1.776 -0.59584,-3.5889 -1.32409,-4.0288 -2.05152,-1.239 -92.67591,-98.1596 -92.67591,-99.11462 0,-0.4647 -10.78717,-12.05893 -23.9715,-25.76496 -13.18432,-13.70603 -23.98432,-25.18403 -24,-25.50667 -0.0235,-0.48266 33.83873,-13.74621 62.08244,-24.31719 9.90768,-3.70823 10.57281,-2.30329 6.34567,13.4038 -3.39804,12.62633 -5.56446,20.8503 -10.01024,38 -0.92676,3.575 -2.27464,8.525 -2.99528,11 -0.72065,2.475 -1.57892,5.85419 -1.90727,7.50932 l -0.59701,3.00932 4.7766,-0.26633 c 5.49286,-0.30626 29.5796,-2.65581 49.27659,-4.8067 15.69073,-1.71341 25.35187,-1.86285 28.02271,-0.43346 2.56683,1.37373 2.72248,2.77572 4.49502,40.48789 1.83397,39.0192 3.37637,66.7454 3.72912,67.0345 0.13923,0.1142 5.42815,-1.0372 11.75315,-2.5586 6.325,-1.5214 15.55,-3.6754 20.5,-4.7867 26.35758,-5.9172 42.0305,-9.5141 42.27989,-9.7033 0.15393,-0.1168 -1.28846,-9.8364 -3.20532,-21.5992 -7.18342,-44.0806 -7.41204,-45.8867 -5.80841,-45.8867 0.42138,0 20.10888,10.7461 43.75,23.8804 23.64111,13.1342 43.34277,23.5528 43.78147,23.1524 0.4387,-0.4005 3.31235,-15.6853 6.38589,-33.9664 l 5.58826,-33.23834 -3.18692,-19.66405 c -4.08463,-25.20314 -6.84659,-42.71338 -8.22806,-52.16405 -1.49906,-10.25515 -1.51879,-10.30139 -4.11612,-9.6514 -4.74505,1.18747 -98.38894,12.71729 -101.05258,12.44201 -2.63289,-0.27211 -4.11363,-2.84746 -23.25937,-40.45343 l -20.44746,-40.16282 22.10033,-25.08718 c 19.18946,-21.78292 23.9184,-26.65777 23.9184,-24.65643 0,0.23691 0.8908,7.54941 1.97955,16.25 1.08875,8.70059 2.70736,21.89425 3.59692,29.31925 0.88955,7.425 1.99369,14.46768 2.45363,15.65039 0.48205,1.23957 2.42139,2.67354 4.57864,3.3855 4.44042,1.46547 86.41109,49.40285 87.9563,51.43785 1.16014,1.52786 -1.75339,3.05523 59.68089,-31.28669 16.91026,-9.45288 31.40723,-17.18705 32.21548,-17.18705 0.80825,0 12.76633,10.9125 26.57352,24.25 13.80718,13.3375 25.69009,24.3844 26.40647,24.54866 0.71637,0.16427 2.00487,-1.41073 2.86332,-3.5 15.05215,-36.63327 15.83059,-38.80086 14.63272,-40.74469 -0.65958,-1.07031 -17.90283,-19.91343 -38.31833,-41.8736 -20.41551,-21.96016 -37.24399,-40.43992 -37.39663,-41.06612 -0.15594,-0.63975 5.75841,-3.40559 13.5,-6.31326 7.57764,-2.84608 25.66137,-9.68558 40.18608,-15.19887 14.52471,-5.51329 26.85729,-9.74683 27.40572,-9.40788 1.04789,0.64763 0.58677,29.26962 -1.32488,82.23739 -0.56437,15.6374 -0.64716,28.81061 -0.18396,29.27381 0.46319,0.46319 17.45895,-18.12514 37.76836,-41.30739 L -108,769.46786 l 31.2495,-0.12425 31.2495,-0.12425 5e-4,181.75 5e-4,181.75004 -223,0 c -122.65,0 -222.9044,-0.3375 -222.78755,-0.75 z m -119.22154,-58 c -1.12736,-2.0625 -4.49827,-7.575 -7.49091,-12.25 -2.99264,-4.675 -6.39591,-10.251 -7.56281,-12.391 -1.16689,-2.14 -2.53928,-4.39 -3.04974,-5 -1.91369,-2.2868 -8.88745,-13.7112 -8.88745,-14.5594 0,-0.4857 -0.3375,-1.033 -0.75,-1.2163 -1.74585,-0.7759 -8.35934,-13.0326 -8.0681,-14.9524 0.21914,-1.4446 6.53981,7.9287 20.3181,30.1311 11,17.7255 20.15,32.6241 20.33333,33.108 0.18334,0.484 -0.37002,0.88 -1.22967,0.88 -0.85966,0 -2.48539,-1.6875 -3.61275,-3.75 z m 36.2654,-169.4632 c -0.57735,-0.70776 -5.19686,-12.08684 -10.26559,-25.28684 -5.06872,-13.2 -11.86521,-30.89131 -15.10329,-39.31402 -3.23809,-8.42271 -5.88743,-15.52134 -5.88743,-15.77475 0,-1.61483 5.88416,-2.21904 13.6976,-1.40653 4.84132,0.50344 19.8274,1.85314 33.3024,2.99932 13.475,1.14619 31.67182,2.73918 40.43738,3.53998 8.76556,0.8008 16.75306,1.456 17.75,1.456 0.99694,0 1.81262,0.47526 1.81262,1.05614 0,0.58087 -12.26366,13.06837 -27.25257,27.75 -47.87637,46.89484 -47.33746,46.39495 -48.49112,44.9807 z"
         id="path4313"
         inkscape:connector-curvature="0" />
      <path
         style="fill:#d22624"
         d="m -491.28755,1131.9694 c 0.11685,-0.4125 -0.27938,-1.65 -0.8805,-2.75 -0.60113,-1.1 -1.59016,-4.25 -2.19785,-7 -0.6077,-2.75 -2.46147,-10.1621 -4.1195,-16.4713 -1.65803,-6.3091 -3.0146,-12.7826 -3.0146,-14.3853 0,-1.7284 -0.91548,-3.775 -2.25,-5.0301 -6.47685,-6.091 -89.29827,-95.08146 -89.57332,-96.24527 -0.17783,-0.75244 0.0165,-1.36807 0.43175,-1.36807 0.41529,0 16.08579,-1.55142 34.82332,-3.44761 51.4737,-5.20899 50.19163,-5.136 51.3368,-2.92282 0.5323,1.02873 1.49025,13.12043 2.12878,26.87047 1.40663,30.2903 2.92625,59.0987 3.70561,70.25 0.48127,6.886 0.85881,8.25 2.28354,8.25 0.93882,0 10.68592,-2.0354 21.66023,-4.5232 10.97431,-2.4877 26.02829,-5.8932 33.45329,-7.5677 7.425,-1.6746 14.7779,-3.5355 16.33977,-4.1354 3.33656,-1.2816 3.66516,2.8982 -2.99546,-38.1022 -2.48644,-15.3056 -4.3047,-28.0445 -4.04057,-28.3086 0.26413,-0.2641 4.69134,1.8597 9.83825,4.7196 35.40244,19.6715 73.61137,40.6458 74.94869,41.1421 0.87488,0.3247 2.05122,0.2945 2.61409,-0.067 0.56287,-0.3616 3.44707,-15.2816 6.40932,-33.1556 3.70487,-22.35486 5.85409,-32.89042 6.88591,-33.7551 6.49546,-5.44332 59.02463,-52.47765 59.54036,-53.31211 0.36269,-0.58685 2.15251,-9.69973 3.97736,-20.25085 10.28602,-59.47258 10.21201,-59.13768 12.92611,-58.49418 0.71988,0.17068 12.9013,11.46474 27.06982,25.0979 14.16852,13.63316 26.26166,24.62552 26.87365,24.42748 1.52936,-0.49493 18.56399,-41.7075 18.31394,-44.30766 -0.11556,-1.20164 -16.52566,-19.66271 -38.54208,-43.35916 -21.08747,-22.6966 -37.96247,-41.60727 -37.5,-42.0237 1.16554,-1.04958 77.74894,-30.02456 79.35743,-30.02456 1.40219,0 1.12135,22.40036 -1.02719,81.93163 -0.56437,15.6374 -0.64716,28.81061 -0.18396,29.27381 0.46319,0.46319 17.45895,-18.12514 37.76836,-41.30739 L -108,769.46786 l 31.2495,-0.12425 31.2495,-0.12425 5e-4,181.75 5e-4,181.75004 -223,0 c -122.65,0 -222.9044,-0.3375 -222.78755,-0.75 z m 360.19645,-126.1026 c 0.7492,-1.2123 -1.9707,-76.04253 -2.79389,-76.86577 -0.37456,-0.37455 -12.47933,11.44635 -26.8995,26.26866 -39.23292,40.32706 -40.17277,41.34619 -38.60733,41.86381 0.7655,0.25312 6.56682,1.1586 12.89182,2.01219 22.011,2.97051 47.5162,6.48641 50,6.89251 4.3724,0.715 4.8708,0.6992 5.4089,-0.1714 z M -460.27921,899.46936 c -15.27857,-29.16752 -33.51495,-65.78917 -33.01153,-66.29259 0.29361,-0.29361 11.34739,2.19329 24.56396,5.52645 27.61818,6.96518 21.04338,3.84215 75.72678,35.9703 36.72317,21.57597 41.38652,24.50788 40.44048,25.42543 -0.24227,0.23497 -11.69048,1.82275 -25.44048,3.5284 -13.75,1.70565 -35.52616,4.44912 -48.39146,6.0966 -12.8653,1.64747 -24.19148,2.99541 -25.16929,2.99541 -1.2651,0 -3.77949,-3.82128 -8.71846,-13.25 z"
         id="path4311"
         inkscape:connector-curvature="0" />
      <path
         style="fill:#ad0e25"
         d="m -490.5,1131.7194 c 0,-0.55 0.35488,-1 0.78862,-1 0.43374,0 3.92124,-2.7569 7.75,-6.1264 6.07934,-5.3501 20.78852,-18.5056 23.89797,-21.3736 0.59629,-0.55 4.22949,-3.6949 8.07379,-6.9886 9.81023,-8.4051 16.15176,-14.2308 21.62007,-19.8614 l 4.71017,-4.8499 37.32969,-9.3723 c 20.53133,-5.1547 38.30438,-9.3848 39.49566,-9.4001 2.93006,-0.038 4.70807,2.3939 27.76797,37.9723 10.87261,16.775 20.34591,31.1069 21.05179,31.8488 1.05292,1.1066 2.14916,-2.1893 6.10414,-18.3528 5.46456,-22.3329 4.34277,-20.8336 16.41013,-21.9316 11.28972,-1.0273 33.51336,-3.2298 51.97957,-5.1516 l 16.47958,-1.7151 33.52042,-29.621 c 18.43624,-16.2916 35.88271,-31.6361 38.76994,-34.0989 l 5.24949,-4.4778 0.01,-9.50004 c 0.01,-12.49619 -1.9603,-64.588 -2.5979,-68.75 -0.2738,-1.7875 -0.9497,-3.25 -1.50209,-3.25 -0.55235,0 -11.43234,10.6875 -24.17776,23.75 -12.74541,13.0625 -28.3606,29.02365 -34.70041,35.46922 L -204,996.65779 l -14.5,-3.02906 c -17.87999,-3.73515 -56.51752,-11.75966 -60.25,-12.51314 -1.91026,-0.38562 -2.75,-1.17257 -2.75,-2.57712 0,-3.46296 10.11402,-47.21635 11.36787,-49.17761 0.69772,-1.09135 6.74914,-3.89653 14.66015,-6.79582 7.40959,-2.71553 15.94698,-5.85889 18.97198,-6.98524 17.45036,-6.49762 33.38181,-11.86044 35.23409,-11.86044 1.72029,0 59.25528,16.56603 68.85271,19.82473 2.9315,0.99539 81.1992,52.25635 84.6632,55.44969 l 2.25,2.07421 0,75.82571 0,75.8257 -222.5,0 c -147.66667,0 -222.5,-0.3364 -222.5,-1 z m 147.0355,-86.1276 c 0.0448,-4.2552 9.46131,-59.70258 10.27785,-60.51912 0.80928,-0.80929 31.17323,-3.26434 40.98634,-3.31391 6.44559,-0.0326 7.66086,0.2065 7,1.37705 -1.03692,1.83665 -54.54183,62.70968 -56.67626,64.48108 -1.44405,1.1985 -1.61951,0.9747 -1.58793,-2.0251 z m 235.8243,-195.48144 c -0.6317,-4.01593 0.5334,-77.10681 1.2409,-77.84814 1.1679,-1.22359 -1.2535,-4.01374 32.2521,37.16312 24.6415,30.28318 29.9726,37.29402 28.3585,37.29402 -0.1588,0 -8.1463,0.6515 -17.75,1.44777 -26.1703,2.16987 -43.9426,2.95296 -44.1015,1.94323 z"
         id="path4309"
         inkscape:connector-curvature="0" />
      <path
         style="fill:#7f0024"
         d="m -296.16417,1131.1521 c -0.33077,-0.8619 -0.17795,-1.9906 0.33959,-2.5082 0.57234,-0.5723 23.64057,-0.8398 58.88279,-0.6827 l 57.94179,0.2582 0.31955,2.25 0.31955,2.25 -58.60093,0 c -52.28429,0 -58.66576,-0.169 -59.20234,-1.5673 z M -110.5,1132.264 c 0,-0.332 52.1769,-42.7361 63.75,-51.8095 0.9932,-0.7787 1.25,4.4884 1.25,25.6424 l 0,26.6225 -32.5,0 c -17.875,0 -32.5,-0.205 -32.5,-0.4554 z m 32.6268,-66.0962 c -17.5302,-6.7622 -32.3577,-12.7794 -32.95,-13.3716 -1.3251,-1.3252 -5.1652,2.1906 32.8232,-30.0518 l 32,-27.15975 0.2701,20.50005 c 0.1485,11.275 0.1485,29.9225 0,41.4389 l -0.2701,20.939 -31.8732,-12.2948 z"
         id="path4307"
         inkscape:connector-curvature="0" />
    </g>
  </g>
</svg>
