<?xml version="1.0" standalone="no"?>
<!DOCTYPE svg PUBLIC "-//W3C//DTD SVG 20010904//EN"
 "http://www.w3.org/TR/2001/REC-SVG-20010904/DTD/svg10.dtd">
<svg version="1.0" xmlns="http://www.w3.org/2000/svg"
 width="631.000000pt" height="631.000000pt" viewBox="0 0 631.000000 631.000000"
 preserveAspectRatio="xMidYMid meet">
<metadata>
Created by potrace 1.14, written by Peter Selinger 2001-2017
</metadata>
<g transform="translate(0.000000,631.000000) scale(0.100000,-0.100000)"
fill="#000000" stroke="none">
<path d="M3318 6299 c-5 -3 -38 -143 -73 -310 -35 -167 -74 -348 -86 -402 -28
-122 -28 -123 116 -117 66 2 388 -71 510 -117 65 -24 117 -53 70 -39 -24 7
-195 42 -245 50 -19 3 -45 8 -57 10 -12 3 -73 12 -135 20 -62 9 -123 18 -136
20 -31 5 -39 -16 -67 -175 -35 -199 -42 -213 -213 -472 -54 -82 -103 -144
-138 -174 -42 -35 -64 -65 -94 -127 -87 -181 -161 -446 -162 -581 0 -76 51
-198 129 -309 39 -56 52 -57 43 -4 -20 108 -27 349 -15 448 14 104 46 192 90
240 12 14 45 64 74 113 29 48 57 87 62 87 14 0 -26 -95 -76 -182 -43 -75 -82
-161 -91 -203 -21 -95 -26 -134 -29 -230 -3 -98 0 -139 21 -279 10 -69 51
-219 78 -285 42 -103 71 -147 113 -166 21 -10 64 -42 96 -71 76 -71 145 -111
337 -197 77 -34 184 -64 214 -60 80 11 295 215 360 341 9 18 19 65 22 105 8
105 3 489 -6 507 -7 11 -15 7 -43 -24 -45 -48 -134 -180 -181 -267 -41 -76
-43 -71 52 -114 34 -16 62 -32 62 -37 0 -5 -34 -6 -75 -2 -73 6 -75 6 -109
-24 -64 -56 -181 -68 -299 -32 -78 24 -123 59 -132 101 -8 36 -43 72 -96 99
-21 11 -39 23 -39 26 0 3 15 20 33 37 37 35 72 124 83 213 8 68 -11 105 -75
140 -54 29 -67 47 -46 64 9 8 31 5 85 -14 87 -29 111 -26 103 14 -4 24 9 49
81 153 78 113 116 160 116 143 0 -4 -17 -41 -39 -84 -53 -106 -103 -231 -134
-332 -87 -294 -81 -261 -63 -322 29 -101 92 -191 139 -200 21 -4 73 -4 179 0
44 2 47 4 59 40 61 189 149 372 275 569 107 168 158 262 209 383 40 95 95 203
102 197 2 -3 -8 -33 -23 -67 -23 -52 -25 -63 -13 -71 38 -24 76 9 117 101 18
41 24 63 37 129 6 33 -16 105 -86 283 -87 221 -112 266 -177 325 -37 34 -51
52 -40 53 10 0 42 9 73 21 49 18 55 23 55 50 0 56 -109 141 -199 155 -45 7
-56 24 -17 24 33 0 160 -46 214 -77 24 -14 45 -23 47 -21 5 5 62 190 79 253
26 103 30 128 28 181 -2 45 2 55 30 86 27 29 218 391 218 413 0 8 -1288 2
-1302 -6z"/>
<path d="M4203 4241 c-43 -50 -56 -75 -28 -51 9 7 18 10 21 7 8 -8 -50 -132
-80 -172 -44 -59 -123 -190 -130 -215 l-7 -25 21 25 c103 121 293 480 254 480
-5 0 -28 -22 -51 -49z"/>
<path d="M1587 3294 c-1 -1 -38 -4 -82 -8 -166 -12 -285 -30 -435 -63 -222
-50 -255 -62 -375 -138 -165 -103 -313 -166 -428 -180 -51 -7 -55 -6 -60 17
-4 12 -7 39 -7 58 0 19 -4 41 -8 47 -8 13 -79 29 -117 27 -11 -1 -32 -2 -48
-3 l-27 -1 2 -622 3 -623 94 2 c51 0 113 4 138 8 51 7 60 20 71 110 7 52 10
60 27 57 23 -3 500 -159 530 -172 19 -9 193 -41 300 -56 322 -43 393 -47 555
-29 75 8 113 12 195 19 39 4 86 9 105 12 19 2 58 7 85 9 28 3 66 7 85 10 19 2
55 7 80 10 209 26 414 63 485 88 36 13 41 19 54 65 23 85 41 81 -296 76 -533
-8 -587 -8 -649 0 -33 4 -67 11 -74 16 -42 26 -22 27 945 33 512 4 513 4 554
70 39 63 34 109 -15 135 -14 7 -178 13 -495 18 -261 3 -503 7 -539 9 -36 1
-143 4 -238 5 -156 3 -193 7 -144 18 9 2 296 5 637 7 763 5 828 9 871 56 19
21 25 74 11 106 -19 44 -144 74 -372 88 -198 12 -667 24 -1132 29 -46 1 -83 4
-83 8 0 3 30 8 68 10 96 5 870 0 912 -6 55 -7 347 -20 439 -18 93 1 140 13
167 43 16 18 16 22 1 53 -39 83 -206 147 -447 172 -36 3 -72 7 -80 9 -8 1 -46
6 -85 9 -38 4 -81 9 -95 11 -14 2 -52 7 -85 10 -33 3 -71 8 -85 10 -14 2 -72
6 -130 9 -58 3 -154 9 -215 13 -141 9 -392 9 -517 0 -54 -4 -98 -5 -98 -3 0 2
35 12 78 21 141 31 304 85 353 117 63 42 84 80 77 143 -9 80 -9 80 -249 80
-115 1 -211 0 -212 -1z"/>
<path d="M3652 2493 c-65 -32 -66 -83 -4 -179 56 -87 130 -167 213 -232 181
-141 454 -333 529 -372 48 -25 175 -125 247 -195 124 -120 93 -133 -110 -50
-135 55 -192 75 -317 110 -52 14 -216 64 -365 110 -148 46 -288 87 -310 90
-34 6 -50 1 -105 -27 -77 -42 -122 -92 -123 -141 -2 -71 53 -113 243 -188 58
-23 139 -57 180 -76 41 -19 131 -61 200 -93 69 -32 166 -70 215 -84 100 -30
165 -56 165 -66 0 -3 -28 -22 -62 -41 -68 -37 -102 -83 -114 -153 -8 -51 9
-66 114 -99 87 -28 122 -34 272 -42 58 -3 119 -8 135 -10 17 -2 73 -7 125 -11
52 -4 104 -8 115 -9 11 -1 32 -3 47 -4 23 -1 43 -22 118 -121 117 -156 134
-175 204 -226 63 -48 63 -60 0 -18 -66 45 -145 114 -255 226 l-107 108 -61 4
c-33 3 -105 8 -158 11 -54 3 -116 7 -138 10 -55 6 -249 18 -310 19 -47 1 -50
0 -47 -23 4 -40 68 -164 113 -221 l41 -52 87 6 c47 4 95 9 106 11 11 2 43 7
70 10 28 3 124 15 215 28 91 12 181 20 200 17 l35 -6 -40 -7 c-22 -3 -92 -11
-155 -17 -63 -6 -128 -13 -145 -15 -16 -2 -52 -6 -80 -10 -111 -14 -192 -27
-222 -36 l-33 -10 18 -37 c10 -20 29 -65 43 -100 13 -35 36 -77 50 -94 l25
-31 275 71 c362 94 517 127 494 104 -12 -12 -83 -31 -396 -106 -125 -30 -244
-62 -265 -71 l-39 -16 21 -18 c15 -12 56 -22 125 -30 149 -17 174 -20 274 -27
50 -3 100 -7 113 -9 58 -9 325 -20 493 -20 l187 0 43 31 c85 61 305 154 328
139 5 -3 12 -23 15 -45 3 -22 9 -58 12 -81 6 -42 16 -50 82 -62 l32 -7 0 619
0 619 -22 6 c-13 3 -33 6 -46 6 -13 0 -130 50 -260 111 -425 200 -645 278
-772 275 -45 -1 -60 3 -80 22 -43 40 -237 173 -445 307 -110 70 -227 147 -260
170 -69 49 -332 201 -516 298 -138 73 -190 83 -257 50z"/>
</g>
</svg>
